<svg width="78" height="22" viewBox="0 0 78 22" fill="none" xmlns="http://www.w3.org/2000/svg">
<path d="M11.9668 0.212435C12.2082 0.0739368 12.4921 0 12.7826 0C13.0731 0 13.357 0.0739368 13.5984 0.212435C14.8754 0.887767 16.1002 1.63312 17.265 2.44383C17.265 2.44383 17.5767 2.6324 17.5859 2.31812C17.5523 1.91082 17.5801 1.50152 17.6684 1.10028C17.7105 0.991088 17.7916 0.895976 17.9001 0.828325C18.0086 0.760674 18.1392 0.723888 18.2734 0.723143C18.2734 0.723143 19.6942 0.785999 20.5925 0.888141C20.7853 0.919005 20.9614 1.00206 21.0951 1.1251C21.2287 1.24813 21.3128 1.40467 21.335 1.5717C21.335 1.5717 21.9216 4.89523 22.05 6.0895C22.265 6.71066 22.659 7.27541 23.1958 7.73162C23.1958 7.73162 25.2674 10.2302 25.5241 10.7173C25.5241 10.7173 26.0099 11.5894 24.9649 11.7073C24.9649 11.7073 23.0583 11.8723 22.875 11.9116C22.813 11.9154 22.7526 11.93 22.6974 11.9545C22.6422 11.979 22.5934 12.0129 22.554 12.054C22.5146 12.0952 22.4853 12.1428 22.468 12.1939C22.4507 12.2451 22.4457 12.2987 22.4533 12.3516C22.4533 12.3516 22.3525 18.1265 21.8575 20.9C21.8575 20.9 21.7291 22 21.0142 21.9686C21.0142 21.9686 19.0617 21.9136 18.6033 21.9686C18.6033 21.9686 18.4017 21.9686 18.4384 21.7407C18.4384 21.7407 19.4283 12.7444 18.7592 8.18733C18.7592 8.18733 18.7592 7.60591 18.2 7.4802C18.2 7.4802 17.7325 7.3152 17.2834 7.85733C15.2924 10.213 14.1889 13.034 14.1209 15.9422C14.0778 16.5499 14.1458 17.1597 14.3226 17.7493C14.3226 17.7493 14.4876 18.0008 15.2942 18.0636L16.3209 18.1815C16.3209 18.1815 16.5134 18.1815 16.495 18.3936C16.495 18.3936 16.2567 21.0336 16.1925 21.5364C16.1923 21.6418 16.1674 21.746 16.1192 21.8429C16.1192 21.8429 16.1192 21.9371 15.7617 21.9293C15.7617 21.9293 11.1784 21.9293 10.7201 21.9293C10.7201 21.9293 10.5093 21.9293 10.4543 21.8271C10.3993 21.725 10.1426 18.4172 10.1518 17.9536C10.1476 17.9055 10.1602 17.8574 10.1879 17.8155C10.2157 17.7735 10.2573 17.7396 10.3076 17.7179C10.6539 17.5311 10.9471 17.2803 11.1659 16.984C11.3848 16.6877 11.5237 16.3533 11.5726 16.0051C11.6213 15.5031 11.6213 14.9985 11.5726 14.4965C11.5726 14.4965 11.7468 9.42874 11.7834 8.61946C11.7834 8.61946 11.7834 8.34447 11.3984 8.28947C11.2978 8.2726 11.1935 8.28921 11.1067 8.33591C11.0198 8.38262 10.957 8.45591 10.931 8.54089C10.931 8.54089 10.6376 11.8801 10.6926 13.208C10.6926 13.208 10.7935 14.0722 10.0968 14.088C10.0968 14.088 9.41847 14.1744 9.38181 13.4594C9.38181 13.4594 9.43681 10.2144 9.6018 8.60375C9.60602 8.55629 9.59928 8.50858 9.58198 8.46335C9.56469 8.41811 9.53716 8.37625 9.50099 8.34013C9.46481 8.30402 9.42069 8.27436 9.37115 8.25286C9.3216 8.23136 9.2676 8.21844 9.21223 8.21483C9.15685 8.21122 9.10119 8.21699 9.04842 8.23182C8.99565 8.24664 8.9468 8.27023 8.90467 8.30124C8.86254 8.33225 8.82794 8.37007 8.80286 8.41253C8.77777 8.455 8.7627 8.50129 8.75848 8.54875C8.75848 8.54875 8.47432 11.6523 8.52932 13.263C8.52932 13.263 8.61182 14.0487 7.86933 14.0487C7.86933 14.0487 7.25517 14.1115 7.2185 13.4044C7.2185 13.4044 7.3835 8.96517 7.42933 8.61946C7.44263 8.525 7.41287 8.42979 7.34627 8.35367C7.27967 8.27755 7.18136 8.22641 7.07184 8.2109C6.96753 8.19962 6.86222 8.2237 6.77832 8.278C6.69442 8.3323 6.63858 8.41253 6.62268 8.50161V8.54089C6.62268 8.54089 6.33851 13.8601 6.38435 15.4158C6.36552 15.8631 6.47621 16.3075 6.70654 16.7092C6.93687 17.1109 7.27967 17.4574 7.70433 17.7179C7.70433 17.7179 7.90599 17.8201 7.91516 17.9693C7.91516 17.9693 8.07099 20.79 8.20849 21.7014C8.20849 21.7014 8.26349 21.9214 8.03433 21.9214L4.5877 22C4.40585 21.9982 4.23163 21.9371 4.1005 21.8291C3.96937 21.721 3.89119 21.5743 3.88188 21.4186C3.42532 18.4308 3.20787 15.4198 3.23106 12.4066C3.24131 12.2881 3.19724 12.171 3.10821 12.08C3.01918 11.989 2.89223 11.9314 2.7544 11.9194C2.7544 11.9194 0.994419 11.7859 0.554425 11.6837C0.458333 11.6639 0.368001 11.6273 0.288994 11.5764C0.209986 11.5255 0.143975 11.4613 0.0950259 11.3877C0.0460773 11.3141 0.0152275 11.2326 0.0043766 11.1484C-0.00647427 11.0642 0.00290352 10.979 0.0319324 10.898C0.0440349 10.8395 0.0689153 10.7836 0.105265 10.733C3.01384 6.45913 7.08288 2.85009 11.9668 0.212435Z" fill="white"/>
<path d="M38.623 10.7959C39.7321 10.7959 39.7321 10.7959 39.9613 9.65665C40.1904 8.51738 40.1904 8.50952 39.1821 8.50952H33.6089C31.6289 8.50952 31.6747 8.50952 31.3447 10.2066L29.9239 17.3487C29.5572 19.2029 29.6031 19.2029 31.5831 19.2029H37.0096C38.1646 19.2029 38.1188 19.2029 38.348 18.103C38.5771 17.003 38.5771 16.9558 37.5688 16.9558H32.8664L33.233 14.9051H37.1471C38.2105 14.9051 38.2105 14.9052 38.3938 13.8366C38.5771 12.768 38.5771 12.7288 37.1471 12.7288H33.7005L34.0672 10.7959H38.623Z" fill="white"/>
<path d="M44.517 14.5909L46.3503 11.1966C46.4878 10.9138 46.4878 10.9138 46.7169 10.9138C46.9461 10.9138 46.9461 10.9138 47.0011 11.2359L47.5511 14.5909H44.517ZM49.4027 9.87663C49.1277 8.53308 49.1277 8.53308 46.9094 8.53308C44.8378 8.53308 44.8836 8.53308 44.242 9.64092L39.5945 17.9694C38.8979 19.1479 39.0354 19.2658 40.7404 19.2658C42.0787 19.2658 42.0787 19.2658 42.6287 18.2051L43.3712 16.783H47.8811L48.1103 18.2051C48.2936 19.2658 48.3394 19.2658 49.6777 19.2658C51.1994 19.2658 51.3369 19.1872 51.0619 17.8908L49.4027 9.87663Z" fill="white"/>
<path d="M60.403 8.54883H52.5747C51.4748 8.54883 51.4748 8.54883 51.2456 9.69596C51.0164 10.8431 51.0623 10.8352 52.0248 10.8352H54.5547L53.1339 17.9066C52.8589 19.2815 52.9047 19.2815 54.3256 19.2815C55.7464 19.2815 55.7097 19.2815 55.893 18.2994L57.3689 10.8352H59.8072C60.9163 10.8352 60.9163 10.8352 61.1455 9.69596C61.3746 8.55669 61.4205 8.54883 60.403 8.54883Z" fill="white"/>
<path d="M58.7985 19.2186C58.6724 19.2245 58.5462 19.208 58.4279 19.1702C58.3096 19.1323 58.2017 19.0739 58.111 18.9986C57.9547 18.8596 57.8691 18.6731 57.8727 18.4801C57.8737 18.2155 57.9954 17.9617 58.2118 17.7729C58.3259 17.6634 58.4681 17.5781 58.6271 17.5236C58.7861 17.469 58.9578 17.4468 59.1285 17.4587C59.2513 17.4504 59.3748 17.465 59.4904 17.5016C59.606 17.5382 59.7109 17.5958 59.7981 17.6704C59.8852 17.7451 59.9524 17.8351 59.9951 17.9342C60.0377 18.0333 60.0548 18.1391 60.0451 18.2444C60.0428 18.5026 59.9246 18.7502 59.7151 18.9358C59.596 19.0378 59.4521 19.116 59.2936 19.1649C59.1352 19.2138 58.9661 19.2321 58.7985 19.2186Z" fill="white"/>
<path d="M68.2308 12.0451C68.4662 12.1702 68.6818 12.3208 68.8724 12.493L68.9274 12.548C68.9653 12.609 68.9786 12.679 68.9654 12.7472C68.9521 12.8154 68.913 12.8779 68.8541 12.9251L68.1758 13.3887C68.1047 13.4338 68.0167 13.4548 67.9287 13.4475C67.8406 13.4403 67.7588 13.4053 67.6991 13.3494C67.5339 13.2054 67.3418 13.0859 67.1308 12.9958C66.7773 12.8569 66.3922 12.7871 66.0033 12.7915C65.5712 12.7876 65.1441 12.8711 64.7567 13.0351C64.3663 13.1974 64.0174 13.4244 63.73 13.703C63.4358 13.9891 63.2003 14.3158 63.0334 14.6694C62.8595 15.0415 62.7723 15.4392 62.7767 15.8401C62.7589 16.1337 62.8098 16.4275 62.9263 16.7041C63.0427 16.9807 63.2225 17.2345 63.455 17.4508C64.0028 17.87 64.7196 18.0899 65.4533 18.0636C66.0586 17.9985 66.6303 17.7889 67.1033 17.4586C67.1796 17.4174 67.2707 17.401 67.3599 17.4126C67.4491 17.4241 67.5304 17.4628 67.5891 17.5215L67.9833 17.93C67.9833 17.93 68.185 18.1658 67.9833 18.3229L67.7541 18.48L67.5158 18.6293C66.8745 18.9755 66.1447 19.1831 65.3892 19.2343C64.7657 19.2636 64.1418 19.1834 63.5559 18.9986C63.1025 18.8372 62.6841 18.6115 62.3184 18.3307C61.9459 18.0436 61.6571 17.6857 61.475 17.2858C61.2865 16.8538 61.1933 16.3955 61.2 15.9344C61.2017 14.7906 61.7095 13.6899 62.6209 12.8544C63.0768 12.4445 63.6261 12.1193 64.2348 11.899C64.8435 11.6787 65.4985 11.568 66.1591 11.5737C66.8831 11.5677 67.5967 11.722 68.2308 12.0215" fill="white"/>
<path d="M71.6319 8.91025C71.6538 8.83391 71.7041 8.76576 71.7753 8.71613C71.8464 8.66651 71.9345 8.63811 72.0261 8.63525H72.8878C72.9282 8.63237 72.9689 8.63805 73.0062 8.65181C73.0435 8.66556 73.0762 8.68697 73.1016 8.71414C73.1269 8.74131 73.1441 8.77341 73.1516 8.80761C73.1591 8.84181 73.1566 8.87706 73.1444 8.91025L72.3561 12.0531C72.3283 12.1432 72.3099 12.2352 72.3011 12.3281C72.4003 12.2789 72.4953 12.2238 72.5853 12.1631C72.8704 11.9935 73.1781 11.8537 73.5019 11.7466C73.9256 11.6179 74.3724 11.5541 74.8219 11.5581C75.614 11.5246 76.392 11.746 77.0035 12.1788C77.2663 12.3852 77.4731 12.6386 77.6093 12.9209C77.7455 13.2033 77.8078 13.5078 77.7919 13.813C77.8067 13.9778 77.8067 14.1433 77.7919 14.308V14.4495C77.7919 14.583 77.7094 14.8109 77.6727 14.968L76.7561 18.7944C76.7329 18.8701 76.6822 18.9376 76.6113 18.987C76.5405 19.0365 76.4531 19.0653 76.3619 19.0694H75.5002C75.4596 19.0718 75.4189 19.0658 75.3815 19.0521C75.3441 19.0383 75.3111 19.0171 75.2851 18.9903C75.2592 18.9634 75.241 18.9316 75.2322 18.8976C75.2234 18.8635 75.2241 18.8282 75.2344 18.7944L76.1511 15.1723C76.1511 15.023 76.2427 14.7873 76.2702 14.6537V14.4887C76.3062 14.3308 76.3247 14.1704 76.3252 14.0095C76.3354 13.8279 76.3007 13.6465 76.2233 13.4772C76.1459 13.3079 76.0275 13.1546 75.8761 13.0273C75.5331 12.7689 75.0854 12.6363 74.6294 12.6581C73.9525 12.6442 73.2955 12.8553 72.7961 13.2473C72.3945 13.6299 72.0833 14.0754 71.8795 14.5595C71.8033 14.7362 71.742 14.9173 71.6961 15.1016L70.7795 18.7944C70.7563 18.8701 70.7056 18.9376 70.6347 18.987C70.5639 19.0365 70.4765 19.0653 70.3853 19.0694H69.5236C69.483 19.0718 69.4424 19.0658 69.405 19.0521C69.3676 19.0383 69.3345 19.0171 69.3085 18.9903C69.2826 18.9634 69.2644 18.9316 69.2556 18.8976C69.2468 18.8635 69.2475 18.8282 69.2578 18.7944L71.6319 8.91025Z" fill="white"/>
</svg>
