<svg width="87" height="14" viewBox="0 0 87 14" fill="none" xmlns="http://www.w3.org/2000/svg">
<path d="M65.0306 8.66745C65.0306 6.93396 63.6438 5.57193 61.8938 5.57193C60.1685 5.57193 58.757 6.93396 58.757 8.66745C58.757 10.4009 60.1685 11.763 61.8938 11.763C63.6438 11.763 65.0306 10.4009 65.0306 8.66745ZM67.5895 3.59906V13.7441H64.981V12.8278C64.073 13.579 62.9256 14 61.6792 14C58.5919 14 56.1815 11.6309 56.1815 8.66745C56.1815 5.71226 58.6001 3.33491 61.6792 3.33491C62.9256 3.33491 64.073 3.7559 64.981 4.50708V3.59906H67.5895ZM76.257 11.441H74.2924C73.698 11.441 73.31 11.1851 73.31 10.6403V5.89387H76.2487V3.59906H73.31V0.709906H70.6768V3.59906H68.6957V5.90212H70.6768V11.2925C70.6768 12.6545 71.6591 13.7358 73.4256 13.7358H76.2487V11.441H76.257ZM82.2004 14C85.2134 14 86.9138 12.5884 86.9138 10.6403C86.9138 9.25354 85.9068 8.2217 83.8018 7.77594L81.573 7.33019C80.2853 7.09906 79.8726 6.85967 79.8726 6.38915C79.8726 5.7783 80.4917 5.40684 81.6391 5.40684C82.8855 5.40684 83.7935 5.73703 84.0577 6.85967H86.6662C86.5259 4.74646 84.9657 3.33491 81.8124 3.33491C79.0884 3.33491 77.1733 4.44104 77.1733 6.57901C77.1733 8.0566 78.2299 9.02241 80.4999 9.49292L82.9846 10.0542C83.9669 10.2441 84.231 10.5 84.231 10.8962C84.231 11.5318 83.4881 11.9281 82.2912 11.9281C80.7888 11.9281 79.9221 11.5979 79.5919 10.4752H76.9586C77.3466 12.5884 78.948 14 82.2004 14ZM45.6567 0H55.4881V2.34434H48.3148V5.70401H55.2983V7.98231H48.3148V11.3833H55.4881V13.7276H45.6567V0Z" fill="white"/>
<path d="M40.9847 5.48939V3.64858H40.283C39.1686 3.64858 38.3432 4.16038 37.8479 4.96108V3.72288H35.8502V13.7193H37.8644V8.04009C37.8644 6.48821 38.8219 5.48939 40.1427 5.48939H40.9847ZM26.4894 7.80071C26.8526 6.27358 28.1073 5.25 29.6014 5.25C31.0955 5.25 32.3585 6.26533 32.6969 7.80071H26.4894ZM29.6427 3.53302C26.671 3.53302 24.4092 5.90212 24.4092 8.72523C24.4092 11.7052 26.7618 13.9422 29.8243 13.9422C31.6816 13.9422 33.2005 13.1415 34.2158 11.8042L32.7547 10.7476C31.9953 11.7465 30.9965 12.217 29.816 12.217C28.0991 12.217 26.7205 11.0035 26.4399 9.37736H34.7276V8.73349C34.7358 5.74528 32.5814 3.53302 29.6427 3.53302ZM18.1191 12.217C16.1627 12.217 14.6026 10.6651 14.6026 8.75C14.6026 6.81014 16.1792 5.28302 18.1191 5.28302C20.0342 5.28302 21.6108 6.81014 21.6108 8.75C21.6191 10.6651 20.0425 12.217 18.1191 12.217ZM12.6297 13.7276H14.6274V12.4729C15.5436 13.3974 16.8479 13.9587 18.2594 13.9587C21.2559 13.9587 23.6085 11.6226 23.6085 8.74174C23.6085 5.84434 21.2559 3.50825 18.2594 3.50825C16.8396 3.50825 15.5601 4.07783 14.6439 4.9941V0H12.6297V13.7276ZM5.53891 12.1179C7.47877 12.1179 8.97288 10.6486 8.97288 8.46934V0H11.0696V13.7193H8.98939V12.4481C8.04835 13.4057 6.75236 13.9587 5.29127 13.9587C2.29481 13.9587 0 11.8208 0 8.5849V0H2.10495V8.46934C2.10495 10.6899 3.58255 12.1179 5.53891 12.1179Z" fill="white"/>
</svg>
