<svg width="94" height="19" viewBox="0 0 94 19" fill="none" xmlns="http://www.w3.org/2000/svg">
<path d="M17.8761 7.11831H13.969C13.5408 8.02817 12.4169 8.6169 11.293 8.50986C10.169 8.40282 6.69014 8.18873 5.24507 8.02817C5.03099 8.02817 5.03099 7.81408 5.24507 7.81408C6.47606 7.76056 9.15211 7.81409 11.1324 7.76056V7.33239C9.15211 7.22535 6.42254 7.11831 5.24507 7.01127C5.03099 7.01127 5.03099 6.8507 5.24507 6.79718C6.47606 6.69014 9.15211 6.69014 11.1324 6.5831V6.15493C9.15211 6.10141 6.47606 6.10141 5.24507 6.04789C5.03099 6.04789 5.03099 5.88732 5.24507 5.8338C6.47606 5.72676 9.15211 5.5662 11.1324 5.40563V4.97746C9.15211 4.97746 6.47606 5.08451 5.24507 5.03099C5.03099 5.03099 5.03099 4.87042 5.24507 4.8169C6.90423 4.60282 11.293 4.22817 11.293 4.22817C11.293 4.22817 9.84789 4.33521 11.293 4.22817C12.4704 4.12113 13.5408 4.65634 13.969 5.5662H17.2338C17.8761 5.5662 17.9831 5.24507 17.7155 4.76338C16.0563 1.92676 13.0056 0 9.47324 0C4.22817 0 0 4.22817 0 9.47324C0 10.2225 0.107042 10.9718 0.267606 11.7211C0.374648 12.2028 0.695775 12.4169 1.28451 12.4169H2.7831C2.7831 12.4169 4.38873 12.4169 6.36901 12.4704H9.74085C11.507 12.4704 13.0056 12.5239 13.3803 12.5239C13.7549 12.5239 13.7549 13.0056 13.2732 13.5944C12.8451 14.1296 11.7211 15.2 8.02817 15.2H6.47606C5.19155 15.2 5.88732 13.9155 4.01408 13.9155H1.98028C1.33803 13.9155 1.17746 14.2366 1.49859 14.7183C3.21127 17.2873 6.10141 19 9.41972 19C14.6648 19 18.893 14.7718 18.893 9.52676C18.893 8.93803 18.8394 8.29578 18.7324 7.76056C18.6789 7.33239 18.3577 7.17183 17.8761 7.11831Z" fill="white"/>
<path d="M24.8339 14.7183H21.5156L21.6227 13.3803H23.8706C24.7269 13.3803 25.1551 13.0056 25.1551 12.2028C25.1551 11.7746 24.9945 11.4 24.6734 11.0254L23.0142 9.20563C22.479 8.6169 22.2114 7.97465 22.2114 7.27887C22.2114 5.61972 23.7635 4.5493 25.7973 4.5493H28.0987L27.9382 5.94084H26.3325C25.6368 5.94084 25.2621 6.15493 25.2621 6.52958C25.2621 6.74366 25.3691 6.95775 25.5297 7.17183L27.5635 9.58028C28.2058 10.3296 28.5269 11.0789 28.5269 11.8817C28.5269 13.5408 26.9748 14.7183 24.8339 14.7183ZM43.4593 14.7183H42.1748C40.8367 14.7183 39.8734 14.0225 39.8734 12.8986V12.6845L40.3551 7.06479C40.3551 6.47606 39.9804 5.94084 39.3382 5.94084H38.2142L37.4114 14.7183H34.6283L35.3241 7.06479C35.3241 6.47606 34.9494 5.94084 34.3072 5.94084H33.1832L32.3804 14.7183H29.5438L30.3466 5.94084H29.5973L29.7044 4.60282H39.4452C41.7466 4.60282 43.1382 5.5662 43.1382 7.17183V7.49296L42.6565 12.5239V12.738C42.6565 13.2197 42.71 13.3803 43.5663 13.3803L43.4593 14.7183ZM52.3438 11.8817C52.1832 13.4338 50.417 14.7183 48.4368 14.7183H48.0086C46.1353 14.7183 44.5832 13.7014 44.5832 12.1493V11.8817L45.0114 7.43944C45.172 5.8338 46.8846 4.60282 48.9184 4.60282H49.3466C51.2198 4.60282 52.772 5.67324 52.772 7.17183V7.38592L52.3438 11.8817ZM49.9889 7.17183C49.9889 6.36901 49.5607 5.94084 49.0255 5.94084C48.3832 5.94084 47.9015 6.5831 47.7945 7.43944L47.4198 11.8817V12.0958C47.4198 12.8451 47.848 13.3803 48.3832 13.3803C48.972 13.3803 49.5072 12.8986 49.6142 11.8817L49.9889 7.43944V7.17183ZM61.5494 11.8817C61.3889 13.4338 59.6227 14.7183 57.6424 14.7183H57.2142C55.341 14.7183 53.7889 13.7014 53.7889 12.1493V11.8817L54.1635 7.38592C54.3241 5.78028 56.0368 4.5493 58.0706 4.5493H58.4987C60.372 4.5493 61.9241 5.61972 61.9241 7.11831V7.38592L61.5494 11.8817ZM59.141 7.17183C59.141 6.36901 58.7128 5.94084 58.1776 5.94084C57.5353 5.94084 57.0536 6.5831 56.9466 7.43944L56.572 11.8817V12.0958C56.572 12.8451 57.0001 13.3803 57.5353 13.3803C58.1241 13.3803 58.6593 12.8986 58.7663 11.8817L59.141 7.43944V7.17183ZM71.0762 12.4704V12.631C71.0762 13.1127 71.3973 13.3803 71.986 13.3803L71.879 14.7183H70.8086C69.8452 14.7183 69.1494 14.4507 68.6677 13.9155C68.079 14.4507 67.2762 14.7183 66.3128 14.7183C64.279 14.7183 62.6734 13.7549 62.6734 12.1493V11.8817L63.048 7.43944C63.2086 5.78028 64.9748 4.60282 66.9551 4.60282H68.9353L69.2565 1.39155H68.4536L68.5607 0.0535213H72.1466L71.0762 12.4704ZM66.848 5.94084C66.2593 5.94084 65.9382 6.26197 65.8846 6.95775L65.4029 12.0958V12.3099C65.4029 13.0592 65.7776 13.4338 66.5804 13.4338C67.4367 13.4338 68.186 12.738 68.2931 11.9352L68.8818 5.99437H66.848V5.94084ZM74.5015 14.7718C73.8058 14.7718 73.217 14.2366 73.217 13.5408C73.217 12.8451 73.7522 12.3099 74.5015 12.3099C75.2508 12.3099 75.786 12.8451 75.786 13.5408C75.786 14.2366 75.1973 14.7718 74.5015 14.7718ZM83.8142 5.94084H80.8705C80.3353 5.94084 79.9072 6.52958 79.9072 7.11831L79.4255 12.3634C79.4255 12.9521 79.9607 13.4338 80.6565 13.4338C81.5128 13.4338 82.2621 12.738 82.3691 11.9352H83.7607C83.6536 13.4338 82.1551 14.7718 80.5494 14.7718H80.1213C78.1945 14.7718 76.6959 13.7549 76.6959 12.1493L77.1241 7.43944C77.2846 5.78028 79.0508 4.60282 81.0311 4.60282H83.9748L83.8142 5.94084ZM93.5551 14.7183H92.4846C91.1466 14.7183 90.1832 14.0225 90.1832 12.8986V12.6845L90.6649 7.43944V7.17183C90.6649 6.31549 90.3438 5.94084 89.648 5.94084H88.5241L87.7213 14.6648H84.9382L86.1691 1.33803H85.3663L85.4734 0H89.0593L88.6311 4.5493H89.7551C92.0029 4.5493 93.448 5.5662 93.448 7.27887V7.65352L93.0198 12.738V12.8986C93.0198 13.3268 93.1269 13.4338 93.7156 13.4338L93.5551 14.7183Z" fill="white"/>
</svg>
