<svg width="100" height="100" viewBox="0 0 100 100" fill="none" xmlns="http://www.w3.org/2000/svg">
<path d="M59.6782 80.2183H52.1003C51.0218 80.2183 50.1474 81.0925 50.1474 82.1712C50.1474 83.2499 51.0218 84.1242 52.1003 84.1242H59.6782C60.8477 84.1242 61.7993 85.0755 61.7993 86.2451C61.7993 87.4146 60.8479 88.3659 59.6782 88.3659H39.279C36.2126 88.3659 33.329 87.014 31.3681 84.6566L26.4898 78.7929C23.8722 75.6464 20.0627 73.8037 15.9865 73.6871V62.1506H23.1771C26.7232 62.1506 30.0808 63.5068 32.6318 65.9693L43.1607 76.1324C43.905 76.8509 43.9398 78.0541 43.238 78.8142C42.5228 79.5888 41.3087 79.6394 40.5316 78.9271L32.2654 71.3498C31.4706 70.6211 30.2351 70.6746 29.5064 71.4697C28.7775 72.2648 28.8312 73.5002 29.6263 74.2289L37.8925 81.8062C39.0073 82.8281 40.4181 83.3328 41.8253 83.3328C43.3964 83.3328 44.963 82.7037 46.1081 81.4632C48.2382 79.1556 48.1329 75.5037 45.8734 73.3224L35.3445 63.1594C32.0615 59.9902 27.7404 58.2449 23.1771 58.2449H15.6072C14.8724 56.5059 13.1492 55.2822 11.1457 55.2822H1.95293C0.874412 55.2822 0 56.1564 0 57.2352V71.5158C0 72.5943 0.874412 73.4687 1.95293 73.4687C3.03144 73.4687 3.90585 72.5945 3.90585 71.5158V59.1879H11.1459C11.6615 59.1879 12.0808 59.6074 12.0808 60.1228V75.7757C12.0808 76.2912 11.6615 76.7107 11.1459 76.7107H9.11756C8.03905 76.7107 7.16464 77.5849 7.16464 78.6636C7.16464 79.7421 8.03905 80.6166 9.11756 80.6166H11.1457C13.1761 80.6166 14.9174 79.3595 15.6351 77.5832C18.6797 77.6005 21.5388 78.9488 23.4873 81.291L28.3656 87.1546C31.071 90.4068 35.0488 92.2718 39.279 92.2718H59.6782C63.0013 92.2718 65.705 89.5683 65.705 86.2451C65.705 82.9218 63.0013 80.2183 59.6782 80.2183Z" fill="#FFC90B"/>
<path d="M98.0467 25.7682C96.9682 25.7682 96.0938 26.6424 96.0938 27.7212V40.8119H88.8538C88.3382 40.8119 87.9188 40.3924 87.9188 39.877V24.2241C87.9188 23.7087 88.3382 23.2891 88.8538 23.2891H90.7387C91.8172 23.2891 92.6917 22.4149 92.6917 21.3362C92.6917 20.2577 91.8172 19.3833 90.7387 19.3833H88.8538C86.8233 19.3833 85.0821 20.6403 84.3643 22.4167C81.3198 22.3993 78.4606 21.051 76.5122 18.7089L71.6339 12.8454C68.9286 9.59326 64.9507 7.72803 60.7202 7.72803H40.3214C36.9984 7.72803 34.2947 10.4315 34.2947 13.7546C34.2947 17.0776 36.9984 19.7811 40.3214 19.7811H48.6628C49.7413 19.7811 50.6157 18.9069 50.6157 17.8282C50.6157 16.7495 49.7413 15.8753 48.6628 15.8753H40.3214C39.1519 15.8753 38.2003 14.9239 38.2003 13.7544C38.2003 12.585 39.1517 11.6335 40.3214 11.6335H60.7204C63.787 11.6335 66.6706 12.9854 68.6315 15.3429L73.5099 21.2063C76.1272 24.3528 79.937 26.1956 84.0132 26.3124V37.8489H76.8225C73.2765 37.8489 69.9188 36.4926 67.3679 34.0301L56.839 23.8671C56.0946 23.1485 56.0599 21.9456 56.7616 21.1852C57.4769 20.4104 58.6909 20.36 59.4681 21.0723L67.7345 28.6497C68.5296 29.3784 69.7645 29.3249 70.4936 28.5297C71.2224 27.7346 71.1686 26.4993 70.3735 25.7706L62.1071 18.1934C59.7478 16.0307 56.0626 16.1848 53.8915 18.5364C51.7614 20.8442 51.8667 24.4962 54.1263 26.6772L64.6552 36.8403C67.9382 40.0094 72.2593 41.7547 76.8225 41.7547H84.3925C85.1272 43.4938 86.8505 44.7174 88.854 44.7174H98.0469C99.1254 44.7174 99.9998 43.8432 99.9998 42.7645V27.7208C99.9997 26.6424 99.1252 25.7682 98.0467 25.7682Z" fill="#FFC90B"/>
<path d="M63.0542 74.149C62.6101 73.1661 61.4558 72.7277 60.4737 73.1716C59.4847 73.6023 59.0323 74.7531 59.463 75.7417C59.7829 76.4767 60.5009 76.9154 61.2544 76.9154C61.5148 76.9154 61.7792 76.863 62.0331 76.7525C62.0413 76.7489 62.0671 76.7374 62.0751 76.7339C63.0581 76.29 63.4982 75.132 63.0542 74.149Z" fill="#FFC90B"/>
<path d="M67.9086 70.8609C67.2701 69.9938 66.043 69.8133 65.1748 70.4488C64.3047 71.0859 64.1156 72.308 64.7527 73.1781C65.1354 73.7006 65.7283 73.9775 66.3299 73.9775C66.7303 73.9775 67.1344 73.8549 67.482 73.6004C67.4852 73.5982 67.5035 73.5846 67.5064 73.5824C68.3715 72.9418 68.5469 71.7277 67.9086 70.8609Z" fill="#FFC90B"/>
<path d="M57.5945 76.3412C57.372 75.2894 56.3394 74.616 55.2867 74.8336C54.2351 75.0423 53.5476 76.0609 53.7492 77.1156C53.9281 78.0511 54.7467 78.7021 55.6652 78.7021C55.7867 78.7021 55.9103 78.6906 56.034 78.6669C56.0467 78.6644 56.0787 78.658 56.0916 78.6552C57.1463 78.4316 57.8177 77.3961 57.5945 76.3412Z" fill="#FFC90B"/>
<path d="M71.9883 66.6133C71.1876 65.8911 69.953 65.9545 69.2303 66.7555C69.2208 66.7662 69.1983 66.7916 69.1889 66.8024C68.4842 67.619 68.5753 68.8522 69.3919 69.5567C69.7608 69.875 70.2147 70.0309 70.6665 70.0309C71.2089 70.0309 71.7481 69.8063 72.1337 69.368C72.8528 68.567 72.7882 67.3346 71.9883 66.6133ZM70.8977 68.26L70.6805 68.0635L70.9157 68.2756L70.8977 68.26Z" fill="#FFC90B"/>
<path d="M76.9591 56.0299C75.9271 55.7168 74.8353 56.3057 74.5222 57.3379C74.205 58.3688 74.7835 59.4615 75.8144 59.7787C76.0056 59.8377 76.1989 59.8656 76.3892 59.8656C77.2239 59.8656 77.9968 59.3262 78.255 58.4865L78.2632 58.4598C78.5761 57.4275 77.9911 56.3428 76.9591 56.0299Z" fill="#FFC90B"/>
<path d="M79.4604 45.9505C79.4561 45.9257 79.4514 45.9009 79.4462 45.8761C79.2257 44.8207 78.1913 44.1455 77.1362 44.3656C76.0848 44.5847 75.4089 45.6128 75.6206 46.664C75.7997 47.5958 76.6163 48.248 77.5358 48.248C77.6501 48.248 77.7661 48.238 77.8823 48.2171C78.944 48.0271 79.6505 47.0122 79.4604 45.9505Z" fill="#FFC90B"/>
<path d="M77.6693 50.1878C76.5984 50.0933 75.6473 50.8872 75.5525 51.9614C75.5508 51.9804 75.5481 52.0189 75.5469 52.0378C75.4836 53.1146 76.3049 54.0388 77.3816 54.1021C77.4207 54.1044 77.4594 54.1056 77.498 54.1056C78.5148 54.1056 79.3693 53.3193 79.4441 52.2952C79.5332 51.2249 78.7406 50.2823 77.6693 50.1878Z" fill="#FFC90B"/>
<path d="M75.0474 61.5868C74.1099 61.0554 72.9174 61.3847 72.3857 62.3231L72.3586 62.372C71.8443 63.32 72.1914 64.514 73.1392 65.0282C73.4375 65.1899 73.7584 65.2667 74.0746 65.2667C74.7638 65.2667 75.4297 64.9011 75.7822 64.2511L74.0845 63.2858L75.7836 64.2487C76.3154 63.3102 75.9859 62.1186 75.0474 61.5868Z" fill="#FFC90B"/>
<path d="M39.6279 24.3946C39.1457 23.4298 37.972 23.0386 37.008 23.5212L36.9906 23.5298C36.0257 24.0122 35.6435 25.1808 36.1259 26.1454C36.4675 26.8288 37.1597 27.2222 37.8773 27.2222C38.173 27.2222 38.473 27.1554 38.7545 27.0147C39.7193 26.5325 40.1101 25.3595 39.6279 24.3946Z" fill="#FFC90B"/>
<path d="M45.2776 22.7661C45.0235 21.7183 43.9692 21.0741 42.9194 21.3284C42.9104 21.3306 42.8827 21.3376 42.8737 21.3399C41.8291 21.6091 41.1965 22.6749 41.4655 23.7192C41.6926 24.6005 42.483 25.1862 43.352 25.1862C43.5129 25.1862 43.6766 25.1661 43.8399 25.1241C44.8879 24.87 45.5317 23.8144 45.2776 22.7661Z" fill="#FFC90B"/>
<path d="M34.464 27.2108C33.7886 26.3716 32.5589 26.2397 31.7186 26.9135L32.9294 28.4458L31.7128 26.918C30.869 27.5899 30.7298 28.8184 31.4015 29.6622C31.7874 30.1466 32.3563 30.3987 32.9308 30.3987C33.3569 30.3987 33.7864 30.2596 34.146 29.9735L34.1718 29.9528C35.0097 29.276 35.1393 28.0501 34.464 27.2108Z" fill="#FFC90B"/>
<path d="M24.0513 41.1056C23.0107 40.822 21.9372 41.4351 21.6534 42.4757C21.6486 42.4935 21.6392 42.5304 21.6347 42.5484C21.3808 43.5962 22.0245 44.6499 23.0722 44.9044C23.2269 44.9419 23.3816 44.9599 23.5339 44.9599C24.4101 44.9599 25.2062 44.3654 25.4281 43.4792C25.6958 42.4464 25.0839 41.3873 24.0513 41.1056Z" fill="#FFC90B"/>
<path d="M22.8071 46.8437C21.7276 46.7837 20.8069 47.6038 20.7444 48.6804C20.7428 48.7056 20.7419 48.7306 20.7411 48.7556C20.7095 49.8331 21.5573 50.731 22.635 50.7632C22.655 50.7638 22.6745 50.7642 22.6942 50.7642C23.7411 50.7642 24.6061 49.9335 24.6448 48.8819C24.6936 47.8157 23.8757 46.9058 22.8071 46.8437Z" fill="#FFC90B"/>
<path d="M26.5091 35.7687C25.5538 35.2675 24.3735 35.6357 23.8725 36.5907L23.8407 36.6536C23.3647 37.621 23.7639 38.7894 24.7311 39.2657C25.0081 39.4023 25.3016 39.4667 25.5913 39.4667C26.3085 39.4667 26.9989 39.0698 27.3411 38.3862C27.8274 37.4345 27.4579 36.2665 26.5091 35.7687Z" fill="#FFC90B"/>
<path d="M30.036 31.0702C29.2061 30.3813 27.9749 30.4956 27.286 31.3253C27.2766 31.3368 27.2552 31.3634 27.2458 31.3749C26.5762 32.22 26.7194 33.4462 27.5641 34.1161C27.9227 34.4007 28.3505 34.5385 28.7755 34.5385C29.3483 34.5385 29.9163 34.2878 30.302 33.8069C30.9786 32.9774 30.8614 31.7555 30.036 31.0702Z" fill="#FFC90B"/>
<path d="M25.0143 54.3022C24.8242 53.2405 23.8088 52.5341 22.7477 52.7243C21.686 52.9145 20.9795 53.9292 21.1696 54.9909L21.1731 55.0101C21.3422 55.954 22.1619 56.6097 23.0879 56.6097C23.2033 56.6097 23.3203 56.5995 23.4379 56.5784C24.4996 56.3884 25.2045 55.364 25.0143 54.3022Z" fill="#FFC90B"/>
<path d="M56.7055 39.4775C54.1635 39.4775 51.8082 40.5258 50.1299 42.2947C48.4514 40.5258 46.0963 39.4775 43.5543 39.4775C38.5538 39.4775 34.4856 43.5457 34.4856 48.5463C34.4856 51.2445 35.6756 53.784 37.7502 55.5136C37.7627 55.5242 37.7756 55.5345 37.7885 55.5449L48.9176 64.3558C49.2727 64.6371 49.7012 64.7775 50.1297 64.7775C50.5602 64.7775 50.9907 64.6357 51.3465 64.3521L62.9471 55.1119C63.0039 55.0668 63.058 55.0183 63.1094 54.9672C64.8279 53.2533 65.7742 50.973 65.7742 48.5463C65.7742 43.5457 61.7061 39.4775 56.7055 39.4775ZM60.4219 52.1304L50.1264 60.3312L40.2338 52.4994C39.0627 51.5142 38.3914 50.075 38.3914 48.5467C38.3913 45.6996 40.7075 43.3834 43.5543 43.3834C45.6502 43.3834 47.5231 44.6351 48.3258 46.5723C48.6283 47.3017 49.3403 47.7775 50.1299 47.7775C50.9196 47.7775 51.6315 47.3019 51.934 46.5723C52.7367 44.6351 54.6096 43.3834 56.7055 43.3834C59.5524 43.3834 61.8686 45.6996 61.8686 48.5465C61.8686 49.8945 61.3555 51.1633 60.4219 52.1304Z" fill="#FFC90B"/>
<path d="M1.95293 80.61C3.02772 80.61 3.89902 79.7387 3.89902 78.6639C3.89902 77.5891 3.02772 76.7178 1.95293 76.7178C0.87813 76.7178 0.00683594 77.5891 0.00683594 78.6639C0.00683594 79.7387 0.87813 80.61 1.95293 80.61Z" fill="#FFC90B"/>
<path d="M98.0467 23.2821C99.1215 23.2821 99.9928 22.4108 99.9928 21.336C99.9928 20.2612 99.1215 19.3899 98.0467 19.3899C96.9719 19.3899 96.1006 20.2612 96.1006 21.336C96.1006 22.4108 96.9719 23.2821 98.0467 23.2821Z" fill="#FFC90B"/>
</svg>
