<svg width="25" height="25" viewBox="0 0 25 25" fill="none" xmlns="http://www.w3.org/2000/svg">
<path d="M21.1294 21.0775C21.5339 21.0775 21.8619 20.7496 21.8619 20.3451V0.732422C21.8619 0.32793 21.5339 0 21.1294 0H5.43936C4.14565 0 3.13794 1.05332 3.13794 2.30146V21.9141V21.9176C3.13794 21.9187 3.13809 21.9197 3.13809 21.9207C3.1417 23.1867 4.17256 24.2155 5.43936 24.2155H11.7675V24.2676C11.7675 24.5214 11.8989 24.7571 12.1148 24.8906C12.3308 25.0241 12.6004 25.0361 12.8274 24.9227L14.0689 24.302L15.3104 24.9227C15.5374 25.0361 15.807 25.0241 16.023 24.8906C16.2389 24.7572 16.3703 24.5214 16.3703 24.2676V24.2155H21.1294C21.5339 24.2155 21.8619 23.8876 21.8619 23.4831C21.8619 23.0786 21.5339 22.7507 21.1294 22.7507H21.0773V21.0775H21.1294ZM4.60278 2.30146C4.60278 1.85088 4.96592 1.46484 5.43936 1.46484H6.27593V19.6126H5.43858C5.1439 19.6126 4.86196 19.6684 4.60278 19.7698V2.30146ZM11.7675 22.7507H5.43936C4.97808 22.7507 4.60278 22.3753 4.60278 21.9141C4.60278 21.4528 4.97808 21.0775 5.43936 21.0775H11.7675V22.7507ZM14.9055 23.0825L14.3965 22.828C14.2934 22.7764 14.1812 22.7506 14.0689 22.7506C13.9567 22.7506 13.8445 22.7764 13.7414 22.828L13.2323 23.0825V21.0774H14.9055V23.0825ZM19.6125 22.7507H16.3703V21.0775H19.6125V22.7507ZM20.397 19.6126H7.74077V1.46484H20.397V19.6126Z" fill="#68B59A"/>
<path d="M10.9826 9.19049V10.931C10.9826 11.3355 11.3106 11.6634 11.715 11.6634H16.4221C16.8266 11.6634 17.1545 11.3355 17.1545 10.931V9.19049C18.0656 8.8839 18.7235 8.02164 18.7235 7.00846C18.7235 5.85802 17.875 4.90206 16.771 4.73346C16.2346 3.76212 15.2035 3.138 14.0685 3.138C12.9335 3.138 11.9025 3.76212 11.3661 4.73341C10.2621 4.90206 9.41357 5.85802 9.41357 7.00846C9.41362 8.0216 10.0715 8.88385 10.9826 9.19049ZM11.715 6.17189C11.7407 6.17189 11.7629 6.17277 11.7812 6.17438C12.1156 6.20509 12.4273 6.00411 12.5384 5.68751C12.7661 5.03878 13.3811 4.60284 14.0686 4.60284C14.7561 4.60284 15.3711 5.03878 15.5988 5.68756C15.7099 6.00416 16.0218 6.20514 16.3561 6.17438C16.3743 6.17277 16.3964 6.17189 16.4221 6.17189C16.8834 6.17189 17.2587 6.54718 17.2587 7.00846C17.2587 7.46974 16.8834 7.84508 16.4221 7.84508C16.0176 7.84508 15.6897 8.17301 15.6897 8.5775V10.1985H12.4475V8.5775C12.4475 8.17301 12.1195 7.84508 11.715 7.84508C11.2538 7.84508 10.8785 7.46974 10.8785 7.00846C10.8785 6.54718 11.2538 6.17189 11.715 6.17189Z" fill="#68B59A"/>
<path d="M16.4224 16.4746H11.7153C11.3108 16.4746 10.9829 16.8025 10.9829 17.207C10.9829 17.6115 11.3108 17.9395 11.7153 17.9395H16.4224C16.8268 17.9395 17.1548 17.6115 17.1548 17.207C17.1548 16.8025 16.8269 16.4746 16.4224 16.4746Z" fill="#68B59A"/>
<path d="M10.1462 14.8015H17.9913C18.3958 14.8015 18.7237 14.4735 18.7237 14.069C18.7237 13.6645 18.3958 13.3366 17.9913 13.3366H10.1462C9.74175 13.3366 9.41382 13.6645 9.41382 14.069C9.41382 14.4735 9.74175 14.8015 10.1462 14.8015Z" fill="#68B59A"/>
</svg>
