<svg width="100" height="100" viewBox="0 0 100 100" fill="none" xmlns="http://www.w3.org/2000/svg">
<path d="M90.625 35.9375C90.625 35.075 89.9266 34.375 89.0625 34.375H84.3359C83.5156 16.1437 68.4312 1.5625 50 1.5625C43.0828 1.5625 36.6406 3.62344 31.2422 7.15469L27.6672 3.57969C27.1156 3.02812 26.2422 2.97031 25.6234 3.43437C15.2969 11.1922 9.375 23.0391 9.375 35.9375C9.375 56.7516 25.1125 73.9516 45.3125 76.2844V82.8125H32.8125C32.3219 82.8125 31.8578 83.0438 31.5625 83.4375L27.3438 89.0625H23.4375C22.5734 89.0625 21.875 89.7625 21.875 90.625V96.875C21.875 97.7375 22.5734 98.4375 23.4375 98.4375H76.5625C77.4266 98.4375 78.125 97.7375 78.125 96.875V90.625C78.125 89.7625 77.4266 89.0625 76.5625 89.0625H72.6562L68.4375 83.4375C68.1422 83.0438 67.6781 82.8125 67.1875 82.8125H54.6875V76.2844C74.8875 73.9516 90.625 56.7516 90.625 35.9375V35.9375ZM81.25 35.9375C81.25 47.5922 74.825 57.7609 65.3406 63.1312L62.4219 60.2125C61.4641 59.2547 60.9375 57.9813 60.9375 56.6297V55.8719C60.9375 54.5187 61.4641 53.2469 62.4203 52.2906C64.4859 50.2234 65.625 47.4766 65.625 44.5078C65.625 41.5844 64.4859 38.8391 62.4219 36.775C60.875 35.2266 58.8188 34.375 56.6281 34.375H54.6875C52.9641 34.375 51.5625 32.9734 51.5625 31.25C51.5625 29.5266 52.9641 28.125 54.6875 28.125C58.1344 28.125 60.9375 25.3219 60.9375 21.875V17.1875C60.9375 14.6031 58.8344 12.5 56.25 12.5C55.3875 12.5 54.6875 11.7984 54.6875 10.9375V5.07812C69.6969 7.35156 81.25 20.3031 81.25 35.9375V35.9375ZM51.5625 4.76719V10.9375C51.5625 13.5219 53.6656 15.625 56.25 15.625C57.1125 15.625 57.8125 16.3266 57.8125 17.1875V21.875C57.8125 23.5984 56.4109 25 54.6875 25C51.2406 25 48.4375 27.8031 48.4375 31.25C48.4375 34.6969 51.2406 37.5 54.6875 37.5H56.6281C57.9828 37.5 59.2547 38.0266 60.2109 38.9844C61.6859 40.4594 62.5 42.4203 62.5 44.5547C62.5 46.6422 61.6859 48.6047 60.2094 50.0797C58.6641 51.6281 57.8125 53.6844 57.8125 55.8703V56.6281C57.8125 58.8141 58.6641 60.8719 60.2109 62.4203L62.3984 64.6078C59.5047 65.8656 56.3906 66.7031 53.125 67.0297V58.5938C53.125 55.6594 51.7234 52.8563 49.3766 51.0938C48.2078 50.2156 46.7641 49.8484 45.3203 50.0547C43.8734 50.2609 42.5953 51.0188 41.7188 52.1875C41.3438 52.6891 40.7937 53.0125 40.175 53.1016C39.5562 53.1906 38.9391 53.0328 38.3406 52.5844C35.9641 50.8 32.6469 51.2219 30.7891 53.5438L27.5359 57.6094C24.5937 54.5594 22.2797 50.9141 20.7641 46.875H26.5625C29.1469 46.875 31.25 44.7719 31.25 42.1875C31.25 41.3266 31.95 40.625 32.8125 40.625H39.0625C41.6469 40.625 43.75 38.5219 43.75 35.9375V31.25C43.75 28.6656 41.6469 26.5625 39.0625 26.5625C38.2 26.5625 37.5 25.8609 37.5 25V21.6078C37.5 20.3563 37.0125 19.1781 36.1266 18.2922L29.8891 12.0547C35.3297 7.46563 42.3422 4.6875 50 4.6875C50.5281 4.6875 51.0422 4.74063 51.5625 4.76719V4.76719ZM50 67.1875C42.3094 67.1875 35.2703 64.3828 29.8203 59.7578L33.2297 55.4953C34.0281 54.5 35.4516 54.3203 36.5625 55.1562C37.7312 56.0344 39.1734 56.3984 40.6188 56.1953C42.0656 55.9891 43.3438 55.2312 44.2203 54.0625C44.5953 53.5609 45.1453 53.2375 45.7641 53.1484C46.3812 53.0625 47.0016 53.2172 47.5 53.5937C49.0641 54.7687 50 56.6375 50 58.5938V67.1875ZM18.75 35.9375C18.75 27.4859 22.1359 19.8203 27.6047 14.1891L33.9172 20.5016C34.2125 20.7969 34.375 21.1906 34.375 21.6078V25C34.375 27.5844 36.4781 29.6875 39.0625 29.6875C39.925 29.6875 40.625 30.3891 40.625 31.25V35.9375C40.625 36.7984 39.925 37.5 39.0625 37.5H32.8125C30.2281 37.5 28.125 39.6031 28.125 42.1875C28.125 43.0484 27.425 43.75 26.5625 43.75H19.7781C19.1312 41.2484 18.75 38.6391 18.75 35.9375V35.9375ZM12.5 35.9375C12.5 24.4828 17.5609 13.9266 26.4328 6.76562L28.675 9.00781C20.7328 15.3094 15.625 25.0344 15.625 35.9375C15.625 54.8922 31.0453 70.3125 50 70.3125C68.4312 70.3125 83.5156 55.7313 84.3359 37.5H87.4687C86.6453 57.4547 70.1531 73.4375 50 73.4375C29.3234 73.4375 12.5 56.6156 12.5 35.9375ZM75 95.3125H25V92.1875H75V95.3125ZM68.75 89.0625H31.25L33.5938 85.9375H66.4062L68.75 89.0625ZM51.5625 82.8125H48.4375V76.5234C48.9562 76.5422 49.4766 76.5625 50 76.5625C50.5234 76.5625 51.0438 76.5422 51.5625 76.5234V82.8125Z" fill="#0394C5"/>
</svg>
