<svg width="28" height="28" viewBox="0 0 28 28" fill="none" xmlns="http://www.w3.org/2000/svg">
<path d="M16.8806 26.353V17.2829H20.9721V14.8414H16.8806V11.3141C16.881 10.9327 17.0327 10.5672 17.3023 10.2975C17.572 10.0279 17.9375 9.87625 18.3188 9.87582H20.9929V7.17427H17.5554C15.7496 7.17427 14.4391 8.59421 14.4391 10.5506V14.8414H10.4431V17.2829H14.4391V26.353H4.91696C4.05003 26.352 3.21889 26.0072 2.60588 25.3942C1.99287 24.7811 1.64805 23.95 1.64706 23.0831V4.91699C1.64804 4.05006 1.99287 3.21892 2.60588 2.60591C3.21889 1.9929 4.05003 1.64808 4.91696 1.64709H23.083C23.95 1.64808 24.7811 1.9929 25.3941 2.60591C26.0071 3.21892 26.3519 4.05006 26.3529 4.91699V23.0831C26.3519 23.95 26.0071 24.7811 25.3941 25.3942C24.7811 26.0072 23.95 26.352 23.083 26.353L16.8806 26.353ZM18.2301 25.0035H23.083C23.5922 25.0029 24.0803 24.8004 24.4403 24.4404C24.8004 24.0804 25.0029 23.5922 25.0034 23.0831V4.91699C25.0029 4.40784 24.8004 3.91971 24.4403 3.55968C24.0803 3.19966 23.5922 2.99715 23.083 2.99658H4.91696C4.40781 2.99715 3.91967 3.19966 3.55965 3.55968C3.19962 3.91971 2.99711 4.40784 2.99654 4.91699V23.0831C2.99711 23.5922 3.19962 24.0804 3.55965 24.4404C3.91967 24.8004 4.40781 25.0029 4.91696 25.0035H13.0896V18.6324H9.92961C9.70796 18.6321 9.49545 18.544 9.33872 18.3872C9.18199 18.2305 9.09383 18.018 9.09358 17.7964V14.3279C9.09384 14.1062 9.18201 13.8937 9.33874 13.737C9.49547 13.5803 9.70796 13.4921 9.92961 13.4919H13.0896V10.5506C13.0896 9.28238 13.5274 8.10361 14.3223 7.23145C15.1491 6.32436 16.2972 5.82479 17.5554 5.82479H21.5226C21.7399 5.82503 21.9483 5.91147 22.102 6.06516C22.2557 6.21884 22.3421 6.4272 22.3424 6.64455V10.4055C22.3421 10.6228 22.2557 10.8312 22.102 10.9849C21.9483 11.1386 21.7399 11.225 21.5226 11.2253H18.2301V13.4919H21.4856C21.7073 13.4922 21.9198 13.5803 22.0765 13.737C22.2332 13.8938 22.3214 14.1062 22.3216 14.3279V17.7964C22.3214 18.018 22.2332 18.2305 22.0765 18.3872C21.9198 18.544 21.7073 18.6321 21.4856 18.6324H18.2301V25.0035Z" fill="#878E8C"/>
</svg>
