<svg width="28" height="28" viewBox="0 0 28 28" fill="none" xmlns="http://www.w3.org/2000/svg">
<path d="M4.91696 26.353C4.05003 26.352 3.21889 26.0072 2.60588 25.3942C1.99287 24.7812 1.64805 23.95 1.64706 23.0831V4.91699C1.64804 4.05006 1.99287 3.21892 2.60588 2.60591C3.21889 1.9929 4.05003 1.64808 4.91696 1.64709H23.083C23.95 1.64808 24.7811 1.9929 25.3941 2.60591C26.0071 3.21892 26.352 4.05006 26.3529 4.91699V23.0831C26.352 23.95 26.0071 24.7812 25.3941 25.3942C24.7811 26.0072 23.95 26.352 23.083 26.353H4.91696ZM4.91696 2.99658C4.40781 2.99715 3.91968 3.19966 3.55965 3.55968C3.19963 3.91971 2.99712 4.40784 2.99655 4.91699V23.0831C2.99712 23.5922 3.19963 24.0804 3.55965 24.4404C3.91968 24.8004 4.40781 25.0029 4.91696 25.0035H23.083C23.5922 25.0029 24.0803 24.8004 24.4404 24.4404C24.8004 24.0804 25.0029 23.5922 25.0035 23.0831V4.91699C25.0029 4.40784 24.8004 3.9197 24.4404 3.55968C24.0803 3.19965 23.5922 2.99714 23.083 2.99658H4.91696Z" fill="#878E8C"/>
<path d="M14 20.1246C12.7887 20.1246 11.6046 19.7654 10.5974 19.0924C9.59021 18.4195 8.8052 17.4629 8.34165 16.3438C7.8781 15.2247 7.75681 13.9933 7.99313 12.8052C8.22944 11.6172 8.81275 10.5259 9.66929 9.66934C10.5258 8.8128 11.6171 8.22949 12.8052 7.99317C13.9932 7.75686 15.2247 7.87814 16.3438 8.3417C17.4629 8.80525 18.4194 9.59025 19.0924 10.5974C19.7654 11.6046 20.1246 12.7887 20.1246 14.0001C20.1227 15.6238 19.4769 17.1806 18.3287 18.3288C17.1805 19.4769 15.6238 20.1228 14 20.1246ZM14 9.22497C13.0556 9.22497 12.1324 9.50503 11.3471 10.0297C10.5619 10.5544 9.94982 11.3002 9.58841 12.1727C9.22699 13.0452 9.13243 14.0054 9.31668 14.9316C9.50093 15.8579 9.95571 16.7087 10.6235 17.3766C11.2913 18.0444 12.1422 18.4991 13.0684 18.6834C13.9947 18.8676 14.9548 18.7731 15.8274 18.4117C16.6999 18.0502 17.4457 17.4382 17.9704 16.653C18.495 15.8677 18.7751 14.9445 18.7751 14.0001C18.7737 12.7341 18.2701 11.5203 17.3749 10.6251C16.4797 9.72996 15.266 9.22641 14 9.22497Z" fill="#878E8C"/>
<path d="M21.162 8.18686C21.8213 8.18686 22.3558 7.65239 22.3558 6.99309C22.3558 6.33379 21.8213 5.79932 21.162 5.79932C20.5027 5.79932 19.9683 6.33379 19.9683 6.99309C19.9683 7.65239 20.5027 8.18686 21.162 8.18686Z" fill="#878E8C"/>
</svg>
