<svg width="93" height="93" viewBox="0 0 93 93" fill="none" xmlns="http://www.w3.org/2000/svg">
<path d="M40.4419 92C34.5238 92 28.8764 89.8057 24.5461 85.8454C23.247 84.5431 22.1103 83.0624 21.1901 81.4747L20.6849 80.6184L19.6925 80.7433C17.4371 81.0109 15.1457 81.1536 12.8903 81.1715H12.8723C12.5836 81.1715 12.2949 81.1893 11.9882 81.1893C8.27131 81.1893 4.57251 80.7076 1 79.7265L2.04649 76.9078C5.34835 77.7641 8.74043 78.1923 12.1505 78.1923C12.4031 78.1923 12.6558 78.1923 12.9084 78.1923C14.3879 78.1923 15.9937 78.1209 17.6537 77.9782L19.4219 77.8176L18.9708 76.1229C18.2671 73.3935 18.0145 70.5748 18.231 67.7562L18.3212 66.5253L17.1124 66.2042C16.7335 66.0971 16.3365 65.9723 15.9576 65.8295C11.934 64.1705 8.6863 60.9237 7.04439 56.9277C4.59055 50.8622 4.66272 44.1903 7.22482 38.1427L7.24286 38.107C9.80496 31.7027 15.1637 26.0833 23.6259 20.9633C31.7452 16.0575 35.0831 5.69277 35.426 4.51536L36.1477 2L37.97 3.81962C46.8652 12.8285 51.0512 22.4797 50.4377 32.5411L50.3114 34.5391L52.2781 34.0932C54.8582 33.5045 57.2219 33.0585 59.5133 32.7374C73.8033 30.7215 84.5209 17.7701 84.6291 17.6274L86.253 15.6472L87.1912 18.0555C93.5604 34.45 93.5062 49.1853 87.0288 61.887C81.7603 72.1982 73.4786 78.6026 69.5091 81.6888L68.625 82.3845C60.9207 88.3608 51.2857 91.7859 41.4884 92H41.4523C41.1275 91.9822 40.7847 92 40.4419 92ZM67.0372 54.6977C54.2989 67.9881 40.496 76.3726 26.0075 79.6373L23.7161 80.1546L25.1415 81.9921C25.6106 82.5986 26.1338 83.1873 26.6932 83.7403C30.0492 87.0585 35.3718 88.8781 41.6688 88.8781C50.2934 88.8781 59.6757 85.56 66.7666 80.0119L67.6687 79.2983C75.5715 73.1794 96.5555 56.9277 86.0004 23.7463L85.2426 21.3736L83.4744 23.1397C77.0511 29.6155 68.8776 33.9504 59.8742 35.6809C46.8472 37.5183 37.3746 41.5144 30.9333 47.8831C25.6647 52.9138 22.2366 59.6393 21.2803 66.8107C20.9014 69.9326 21.154 73.0188 22.0381 76.0159L22.435 77.3181L23.7883 77.0505C38.2226 74.1784 52.0074 65.9723 64.7999 52.6462L67.0372 54.6977ZM10.0395 39.1774C7.74807 44.4579 7.65785 50.3092 9.76888 55.6432C11.086 58.9792 13.7744 61.6729 17.1124 63.0287L17.2026 63.0644L18.7543 63.6353L19.1873 62.0654C20.8833 55.9108 24.2213 50.2914 28.8222 45.8137C33.6758 41.1933 39.648 37.7146 46.1074 35.7701L47.0637 35.4846L47.1719 34.5035C48.1823 25.4232 45.2233 16.3072 39.0526 9.49257L37.4648 7.7443L36.5446 9.90287C34.163 15.4509 30.2296 20.1427 25.1595 23.4965C17.3108 28.2597 12.3671 33.3796 10.0395 39.1774Z" fill="#68B59A" stroke="#68B59A" stroke-width="1.25"/>
<path d="M70.5876 46.2598C71.1404 45.4109 71.6774 44.5818 72.2143 43.7527L74.299 45.7663C73.7304 46.6546 73.1777 47.543 72.6091 48.3919L70.5876 46.2598Z" fill="#68B59A" stroke="#68B59A" stroke-width="1.25"/>
</svg>
