<svg width="190" height="141" viewBox="0 0 190 141" fill="none" xmlns="http://www.w3.org/2000/svg">
<g opacity="0.15">
<path d="M31.1546 46.0559C32.2933 45.3216 33.2214 44.302 33.847 43.0977C34.4727 41.8934 34.7742 40.5462 34.7219 39.1891C34.7736 37.3206 34.1962 35.4892 33.0828 33.9904C31.92 32.5059 30.3424 31.4029 28.5516 30.8225C29.926 30.1461 31.086 29.0996 31.9017 27.8C32.6967 26.499 33.1063 24.9979 33.0828 23.4721C33.1127 22.197 32.8186 20.9353 32.2283 19.8057C31.638 18.6761 30.7708 17.7158 29.7084 17.0153C27.4587 15.42 24.1808 14.6221 19.8747 14.6218H2.61719V48.4739H20.8388C25.3375 48.4739 28.7761 47.6679 31.1546 46.0559ZM12.0656 21.5377H18.6213C21.8346 21.5377 23.4415 22.6176 23.4418 24.7775C23.4418 26.9707 21.835 28.067 18.6213 28.0664H12.0656V21.5377ZM12.0656 41.558V34.6913H20.0674C23.4093 34.6913 25.0805 35.8357 25.0809 38.1246C25.0809 40.4142 23.4098 41.5586 20.0674 41.558H12.0656Z" fill="#F2F2F2"/>
<path d="M50.5327 14.6218L35.6375 48.4739H45.3749L48.0262 41.8971H62.2947L64.9459 48.4739H74.8762L59.9327 14.6218H50.5327ZM50.822 34.8367L55.1604 24.0039L59.4989 34.8367H50.822Z" fill="#F2F2F2"/>
<path d="M106.113 46.0559C107.251 45.3217 108.179 44.302 108.805 43.0977C109.431 41.8934 109.732 40.5462 109.68 39.1891C109.732 37.3206 109.154 35.4892 108.041 33.9904C106.878 32.5059 105.301 31.4029 103.51 30.8225C104.884 30.146 106.044 29.0996 106.86 27.8C107.655 26.499 108.064 24.9979 108.041 23.4721C108.071 22.197 107.777 20.9353 107.186 19.8057C106.596 18.6761 105.729 17.7158 104.666 17.0153C102.417 15.42 99.1389 14.6221 94.8329 14.6218H77.5754V48.4739H95.797C100.296 48.4739 103.734 47.6679 106.113 46.0559ZM87.0236 21.5377H93.5793C96.7926 21.5377 98.3995 22.6176 98.3998 24.7775C98.3998 26.9707 96.7929 28.067 93.5793 28.0664H87.0236V21.5377ZM87.0236 41.558V34.6913H95.0254C98.3675 34.6913 100.039 35.8357 100.039 38.1246C100.039 40.4142 98.3678 41.5586 95.0254 41.558H87.0236Z" fill="#F2F2F2"/>
<path d="M141.278 16.2181C138.292 14.7229 134.999 13.9446 131.661 13.9446C128.323 13.9446 125.031 14.7229 122.044 16.2181C119.25 17.6666 116.914 19.8692 115.3 22.5776C113.686 25.286 112.858 28.3927 112.909 31.5478C112.858 34.7029 113.686 37.8096 115.3 40.5181C116.914 43.2265 119.25 45.429 122.044 46.8776C125.031 48.3728 128.323 49.1511 131.661 49.1511C134.999 49.1511 138.292 48.3728 141.278 46.8776C144.073 45.429 146.408 43.2264 148.022 40.518C149.636 37.8096 150.464 34.7029 150.413 31.5478C150.464 28.3928 149.636 25.2861 148.022 22.5777C146.408 19.8693 144.073 17.6667 141.278 16.2181ZM139.567 36.6011C138.81 38.0202 137.675 39.2006 136.289 40.0108C134.874 40.8036 133.281 41.2198 131.661 41.2198C130.041 41.2198 128.448 40.8036 127.034 40.0108C125.647 39.2009 124.512 38.0204 123.756 36.6011C122.931 35.0474 122.516 33.3078 122.55 31.5478C122.516 29.7879 122.931 28.0483 123.756 26.4946C124.513 25.0756 125.648 23.8953 127.034 23.0848C128.448 22.292 130.041 21.8758 131.661 21.8758C133.281 21.8758 134.874 22.292 136.289 23.0848C137.675 23.8956 138.809 25.0759 139.567 26.4946C140.391 28.0484 140.806 29.7879 140.772 31.5478C140.806 33.3078 140.391 35.0473 139.567 36.6011V36.6011Z" fill="#F2F2F2"/>
<path d="M177.456 14.6218V33.095C177.456 38.5119 175.335 41.2202 171.093 41.2199C166.818 41.2199 164.681 38.5116 164.681 33.095V14.6218H155.137V33.3859C155.137 38.4146 156.527 42.2995 159.307 45.0405C159.465 45.1968 159.64 45.3326 159.806 45.4799C161.346 46.9775 163.271 48.0145 165.366 48.4745C165.779 48.528 166.154 48.7427 166.411 49.072C166.667 49.4013 166.784 49.8187 166.736 50.2338L163.337 102.068C163.046 106.989 165.914 109.626 170.996 109.626C176.076 109.626 178.941 106.992 178.654 102.069L175.258 50.2313C175.21 49.8163 175.327 49.399 175.584 49.0699C175.84 48.7408 176.216 48.5265 176.629 48.4733C178.716 48.014 180.634 46.9822 182.171 45.4931C182.342 45.3416 182.522 45.2015 182.686 45.0405C185.465 42.3005 186.855 38.4156 186.855 33.3859V14.6218H177.456Z" fill="#F2F2F2"/>
<path d="M15.9101 74.1348C17.4085 73.3117 19.0951 72.8949 20.8031 72.9258C22.3438 72.9269 23.8634 73.2854 25.2432 73.9733C26.623 74.6611 27.8255 75.6597 28.7569 76.891L34.8306 71.3787C33.1918 69.3157 31.073 67.6881 28.6604 66.639C26.0261 65.5109 23.185 64.9507 20.3211 64.9946C17.0108 64.9409 13.7392 65.7137 10.8006 67.2435C8.05758 68.6774 5.76354 70.8447 4.17245 73.5057C2.59307 76.274 1.76221 79.4082 1.76221 82.5978C1.76221 85.7874 2.59307 88.9217 4.17245 91.6899C5.76326 94.3511 8.05738 96.5186 10.8006 97.9521C13.7392 99.4819 17.0108 100.255 20.3211 100.201C23.185 100.245 26.0261 99.6847 28.6604 98.5566C31.0734 97.5082 33.1923 95.8805 34.8306 93.817L28.7569 88.3047C27.8257 89.5361 26.6231 90.5348 25.2434 91.2227C23.8636 91.9105 22.3439 92.2689 20.8031 92.2698C19.095 92.3012 17.4084 91.8844 15.9101 91.0608C14.4957 90.2714 13.3403 89.0868 12.5843 87.6511C11.8074 86.0806 11.4032 84.3511 11.4032 82.5978C11.4032 80.8446 11.8074 79.1151 12.5843 77.5446C13.3408 76.1092 14.4961 74.9247 15.9101 74.1348V74.1348Z" fill="#F2F2F2"/>
<path d="M109.669 65.6716H99.1604L86.0974 79.7444V65.6716H76.6489V99.5238H86.0974V91.0603L89.6635 87.2403L99.305 99.5238H110.392L95.8825 80.6634L109.669 65.6716Z" fill="#F2F2F2"/>
<path d="M126.07 65.6716L111.174 99.5238H120.912L123.563 92.947H137.831L140.483 99.5238H150.413L135.47 65.6716H126.07ZM126.359 85.8866L130.697 75.0537L135.036 85.8866H126.359Z" fill="#F2F2F2"/>
<path d="M61.6325 99.5238H71.177V65.6716H61.6325V77.9074H48.617V65.6716H39.0725V99.5238H48.617V86.3213V85.8375H61.6325V86.3213V99.5238Z" fill="#F2F2F2"/>
<path d="M4.59592 117.294H2.61743V124.31H7.93259V122.736H4.59592V117.294Z" fill="#F2F2F2"/>
<path d="M12.8384 117.293L9.75073 124.31H11.7693L12.318 122.947H15.2756L15.8252 124.31H17.884L14.7866 117.293H12.8384ZM12.898 121.483L13.7968 119.238L14.6966 121.483H12.898Z" fill="#F2F2F2"/>
<path d="M27.5201 119.048C27.8308 118.877 28.1806 118.79 28.5349 118.797C28.8542 118.797 29.1692 118.871 29.4551 119.014C29.741 119.156 29.9901 119.363 30.1828 119.619L31.4426 118.476C31.1025 118.048 30.6633 117.711 30.1633 117.494C29.6174 117.26 29.0286 117.144 28.4352 117.153C27.7492 117.142 27.0712 117.302 26.462 117.619C25.8933 117.916 25.4176 118.366 25.0873 118.917C24.7605 119.491 24.5886 120.141 24.5886 120.802C24.5886 121.463 24.7605 122.112 25.0873 122.686C25.4173 123.238 25.8931 123.687 26.462 123.983C27.0709 124.301 27.749 124.461 28.4352 124.45C29.0286 124.459 29.6173 124.343 30.1633 124.11C30.6633 123.892 31.1026 123.555 31.4426 123.127L30.1828 121.984C29.9901 122.24 29.741 122.447 29.4551 122.59C29.1692 122.732 28.8542 122.807 28.5349 122.807C28.1806 122.813 27.8308 122.726 27.5201 122.555C27.2269 122.392 26.9874 122.146 26.8306 121.848C26.6701 121.523 26.5867 121.164 26.5867 120.801C26.5867 120.438 26.6701 120.079 26.8306 119.754C26.9878 119.457 27.2272 119.211 27.5201 119.048V119.048Z" fill="#F2F2F2"/>
<path d="M38.6065 121.122C38.6065 122.246 38.1667 122.807 37.2871 122.807C36.4013 122.807 35.9583 122.245 35.9579 121.122V117.294H33.9794V121.183C33.9515 121.624 34.0139 122.065 34.1627 122.481C34.3115 122.896 34.5435 123.277 34.8445 123.599C35.1715 123.895 35.5543 124.124 35.9704 124.27C36.3864 124.416 36.8275 124.477 37.2675 124.45C37.7076 124.477 38.1486 124.416 38.5647 124.27C38.9808 124.123 39.3635 123.895 39.6906 123.599C39.9912 123.276 40.223 122.896 40.3715 122.48C40.5201 122.065 40.5825 121.624 40.5547 121.183V117.294H38.6065V121.122Z" fill="#F2F2F2"/>
<path d="M45.6697 117.293H43.6912V124.31H45.6697V117.293Z" fill="#F2F2F2"/>
<path d="M53.1384 120.405C52.7062 120.253 52.2639 120.13 51.8148 120.04C51.4635 119.975 51.1191 119.878 50.7859 119.749C50.6952 119.722 50.6155 119.666 50.5581 119.591C50.5007 119.515 50.4685 119.423 50.4661 119.328C50.4668 119.235 50.4922 119.144 50.5396 119.063C50.587 118.983 50.6548 118.917 50.736 118.872C51.001 118.736 51.2979 118.675 51.5947 118.696C52.2758 118.711 52.9424 118.898 53.5331 119.238L54.1424 117.764C53.775 117.553 53.3776 117.4 52.964 117.309C52.5182 117.205 52.062 117.153 51.6044 117.153C51.0223 117.137 50.4429 117.239 49.9012 117.453C49.4823 117.619 49.1199 117.903 48.8572 118.27C48.625 118.611 48.5028 119.015 48.507 119.428C48.4848 119.85 48.6201 120.264 48.8865 120.591C49.1326 120.873 49.4454 121.088 49.7961 121.218C50.2269 121.37 50.6678 121.492 51.1155 121.583C51.4719 121.653 51.8213 121.756 52.1595 121.889C52.2532 121.92 52.3349 121.979 52.393 122.059C52.4512 122.139 52.4829 122.236 52.4836 122.335C52.4836 122.716 52.1042 122.907 51.3453 122.907C50.9316 122.904 50.5205 122.84 50.1256 122.716C49.7409 122.602 49.3744 122.433 49.0371 122.215L48.3877 123.678C48.7842 123.94 49.2239 124.13 49.6865 124.239C50.2244 124.381 50.7783 124.452 51.3344 124.45C51.9156 124.466 52.4938 124.362 53.0333 124.144C53.4531 123.977 53.8171 123.694 54.0827 123.328C54.3142 122.992 54.4366 122.593 54.4329 122.185C54.4555 121.764 54.3179 121.35 54.048 121.027C53.7995 120.749 53.4874 120.536 53.1384 120.405Z" fill="#F2F2F2"/>
<path d="M59.1185 117.293H57.1399V124.31H59.1185V117.293Z" fill="#F2F2F2"/>
<path d="M67.042 121.032L63.9534 117.294H62.3257V124.31H64.2641V120.57L67.3517 124.31H68.9803V117.294H67.042V121.032Z" fill="#F2F2F2"/>
<path d="M74.1352 121.493H77.2433V120.01H74.1352V118.827H77.6622V117.294H72.1772V124.31H77.7918V122.776H74.1352V121.493Z" fill="#F2F2F2"/>
<path d="M118.179 121.493H121.287V120.01H118.179V118.827H121.706V117.294H116.221V124.31H121.835V122.776H118.179V121.493Z" fill="#F2F2F2"/>
<path d="M85.396 124.31H87.3736V121.904H90.4612V120.371H87.3736V118.827H90.881V117.294H85.396V124.31Z" fill="#F2F2F2"/>
<path d="M95.5872 117.293L92.4995 124.31H94.5182L95.0678 122.947H98.0254L98.5751 124.31H100.633L97.5354 117.293H95.5872ZM95.6468 121.483L96.5466 119.238L97.4454 121.483H95.6468Z" fill="#F2F2F2"/>
<path d="M104.969 117.293H102.991V124.31H104.969V117.293Z" fill="#F2F2F2"/>
<path d="M107.518 118.867H109.665V124.31H111.643V118.867H113.781V117.294H107.518V118.867Z" fill="#F2F2F2"/>
<path d="M134.694 117.294L132.296 121.343L129.838 117.294H128.21V124.31H130.038V120.691L131.827 123.618H132.705L134.505 120.592L134.524 124.31H136.343L136.323 117.294H134.694Z" fill="#F2F2F2"/>
<path d="M141.788 117.293L138.7 124.31H140.719L141.268 122.947H144.226L144.776 124.31H146.833L143.736 117.293H141.788ZM141.847 121.483L142.747 119.238L143.646 121.483H141.847Z" fill="#F2F2F2"/>
<path d="M151.17 117.293H149.191V124.31H151.17V117.293Z" fill="#F2F2F2"/>
<path d="M158.639 120.405C158.206 120.253 157.764 120.131 157.315 120.04C156.963 119.975 156.618 119.878 156.285 119.749C156.194 119.722 156.115 119.666 156.058 119.59C156.001 119.515 155.968 119.423 155.966 119.328C155.967 119.235 155.992 119.144 156.039 119.063C156.086 118.983 156.154 118.917 156.235 118.872C156.5 118.736 156.798 118.675 157.095 118.696C157.776 118.712 158.442 118.898 159.033 119.238L159.642 117.764C159.275 117.553 158.878 117.4 158.464 117.309C158.018 117.205 157.562 117.153 157.104 117.153C156.522 117.137 155.943 117.239 155.401 117.453C154.982 117.619 154.62 117.903 154.357 118.27C154.125 118.611 154.002 119.015 154.007 119.428C153.985 119.85 154.12 120.264 154.387 120.591C154.632 120.873 154.945 121.089 155.296 121.218C155.727 121.37 156.167 121.492 156.614 121.583C156.971 121.653 157.321 121.756 157.66 121.889C157.753 121.92 157.835 121.979 157.893 122.059C157.951 122.139 157.983 122.236 157.984 122.335C157.984 122.716 157.604 122.907 156.844 122.907C156.026 122.895 155.228 122.655 154.537 122.215L153.887 123.678C154.283 123.94 154.723 124.13 155.186 124.239C155.724 124.381 156.278 124.452 156.834 124.45C157.416 124.466 157.994 124.362 158.533 124.144C158.953 123.977 159.317 123.694 159.583 123.328C159.814 122.992 159.936 122.593 159.932 122.185C159.955 121.764 159.818 121.35 159.548 121.027C159.3 120.749 158.987 120.536 158.639 120.405V120.405Z" fill="#F2F2F2"/>
<path d="M168.161 117.624C167.541 117.315 166.859 117.153 166.167 117.153C165.475 117.153 164.792 117.315 164.173 117.624C163.595 117.928 163.111 118.385 162.774 118.945C162.436 119.505 162.257 120.147 162.257 120.802C162.257 121.456 162.436 122.099 162.774 122.659C163.111 123.219 163.595 123.675 164.173 123.979C164.792 124.289 165.475 124.45 166.167 124.45C166.859 124.45 167.541 124.289 168.161 123.979C168.738 123.675 169.222 123.218 169.559 122.658C169.897 122.098 170.075 121.456 170.075 120.802C170.075 120.147 169.897 119.505 169.559 118.945C169.222 118.385 168.738 117.928 168.161 117.624ZM167.805 121.849C167.649 122.143 167.414 122.388 167.126 122.556C166.833 122.72 166.503 122.807 166.167 122.807C165.831 122.807 165.501 122.72 165.207 122.556C164.92 122.388 164.685 122.143 164.529 121.849C164.364 121.524 164.278 121.165 164.278 120.801C164.278 120.437 164.364 120.078 164.529 119.754C164.685 119.46 164.92 119.216 165.207 119.048C165.501 118.883 165.831 118.797 166.167 118.797C166.503 118.797 166.833 118.883 167.126 119.048C167.413 119.216 167.649 119.46 167.805 119.754C167.97 120.078 168.055 120.437 168.055 120.801C168.055 121.165 167.97 121.524 167.805 121.849V121.849Z" fill="#F2F2F2"/>
<path d="M177.607 121.032L174.519 117.294H172.891V124.31H174.829V120.57L177.917 124.31H179.545V117.294H177.607V121.032Z" fill="#F2F2F2"/>
</g>
</svg>
