<svg width="177" height="50" viewBox="0 0 177 50" fill="none" xmlns="http://www.w3.org/2000/svg">
<g clip-path="url(#clip0)">
<path d="M13.596 8.82006C14.3165 8.46663 14.9246 7.91977 15.3522 7.24062C15.769 6.56078 15.9837 5.77639 15.9714 4.97906C15.987 4.31276 15.8329 3.65343 15.5234 3.06315C15.2139 2.47287 14.7593 1.97107 14.2024 1.60497C13.023 0.771327 11.3046 0.354419 9.04723 0.354248H0V18.044H9.55265C11.911 18.044 13.7136 17.6228 14.9605 16.7804C15.5575 16.3967 16.044 15.8639 16.372 15.2346C16.7 14.6053 16.8581 13.9013 16.8307 13.1921C16.8578 12.2157 16.5551 11.2587 15.9714 10.4755C15.3618 9.69974 14.5348 9.12336 13.596 8.82006ZM4.95325 3.96821H8.39001C10.0746 3.96821 10.917 4.53253 10.9171 5.66117C10.9171 6.80725 10.0747 7.38013 8.39001 7.3798H4.95325V3.96821ZM9.14815 14.43H4.95325V10.8417H9.14815C10.9001 10.8417 11.7762 11.4398 11.7764 12.6359C11.7765 13.8323 10.9004 14.4304 9.14817 14.43H9.14815Z" fill="white"/>
<path d="M30.0474 0.354248H25.1195L17.3107 18.044H22.4155L23.8054 14.6072H31.2855L32.6754 18.044H37.8814L30.0474 0.354248ZM25.271 10.9178L27.5454 5.25694L29.8198 10.9178H25.271Z" fill="white"/>
<path d="M56.1269 13.1921C56.154 12.2157 55.8513 11.2587 55.2676 10.4755C54.6581 9.69974 53.8311 9.12336 52.8923 8.82006C53.6128 8.46656 54.2209 7.91973 54.6487 7.24062C55.0654 6.56076 55.28 5.77637 55.2676 4.97906C55.2833 4.31275 55.1291 3.65342 54.8196 3.06315C54.5101 2.47287 54.0555 1.97106 53.4986 1.60497C52.3192 0.771327 50.6008 0.354419 48.3435 0.354248H39.2965V18.044H48.8489C51.2074 18.044 53.0101 17.6228 54.2567 16.7804C54.8538 16.3968 55.3403 15.864 55.6683 15.2346C55.9963 14.6053 56.1544 13.9013 56.1269 13.1921ZM44.2495 3.96821H47.6863C49.3709 3.96821 50.2132 4.53253 50.2134 5.66117C50.2134 6.80725 49.371 7.38013 47.6863 7.3798H44.2495V3.96821ZM48.4444 14.43H44.2495V10.8417H48.4444C50.1966 10.8417 51.0727 11.4398 51.0727 12.6359C51.0727 13.8323 50.1966 14.4304 48.4444 14.43Z" fill="white"/>
<path d="M72.692 1.1884C71.1263 0.407078 69.4003 0.000366211 67.6504 0.000366211C65.9005 0.000366211 64.1746 0.407078 62.6088 1.1884C61.1439 1.94541 59.9195 3.09638 59.0734 4.51169C58.2273 5.92699 57.7932 7.55042 57.8199 9.19912C57.7932 10.8478 58.2273 12.4713 59.0734 13.8866C59.9195 15.3019 61.1439 16.4528 62.6088 17.2099C64.1746 17.9912 65.9005 18.3979 67.6504 18.3979C69.4003 18.3979 71.1263 17.9912 72.692 17.2099C74.1569 16.4528 75.3814 15.3019 76.2275 13.8866C77.0735 12.4713 77.5077 10.8478 77.481 9.19912C77.5077 7.55042 77.0735 5.92699 76.2275 4.51169C75.3814 3.09638 74.1569 1.94541 72.692 1.1884ZM71.795 11.8398C71.398 12.5813 70.8031 13.1981 70.0763 13.6216C69.3349 14.0358 68.4997 14.2533 67.6504 14.2533C66.8011 14.2533 65.9659 14.0358 65.2245 13.6216C64.4976 13.1983 63.9026 12.5815 63.5059 11.8398C63.0734 11.0279 62.8559 10.1188 62.8741 9.19912C62.856 8.27944 63.0735 7.37041 63.5059 6.5585C63.9029 5.817 64.4978 5.20019 65.2245 4.77669C65.9659 4.36242 66.8011 4.14492 67.6504 4.14492C68.4997 4.14492 69.3349 4.36242 70.0763 4.77669C70.8029 5.2004 71.3978 5.81716 71.795 6.5585C72.2271 7.3705 72.4446 8.27946 72.4267 9.19912C72.4447 10.1188 72.2272 11.0278 71.795 11.8398Z" fill="white"/>
<path d="M91.6577 10.0076C91.6577 12.8382 90.5458 14.2535 88.322 14.2533C86.0811 14.2533 84.9608 12.8381 84.9608 10.0076V0.354248H79.9572V10.1596C79.9572 12.7874 80.6859 14.8175 82.1433 16.2499C82.2264 16.3315 82.3181 16.4025 82.4051 16.4795C83.2122 17.262 84.2216 17.8039 85.3198 18.0443C85.5364 18.0723 85.7332 18.1844 85.8676 18.3565C86.002 18.5286 86.0632 18.7467 86.0379 18.9636L84.2564 46.0499C84.1036 48.6217 85.607 49.9996 88.2711 49.9996C90.9347 49.9996 92.4366 48.623 92.2859 46.0506L90.5058 18.9623C90.4805 18.7455 90.5418 18.5274 90.6763 18.3555C90.8108 18.1835 91.0076 18.0715 91.2242 18.0437C92.3183 17.8037 93.3242 17.2645 94.1298 16.4863C94.2196 16.4072 94.314 16.3339 94.3995 16.2498C95.8565 14.818 96.5852 12.7879 96.5855 10.1596V0.354248H91.6577L91.6577 10.0076Z" fill="white"/>
<path d="M106.479 4.77672C107.265 4.34658 108.149 4.12882 109.044 4.14494C109.852 4.14553 110.648 4.33286 111.372 4.6923C112.095 5.05174 112.726 5.57355 113.214 6.21697L116.398 3.33646C115.539 2.25844 114.428 1.40794 113.163 0.859702C111.782 0.27021 110.293 -0.0225501 108.791 0.000391895C107.056 -0.0276677 105.341 0.376179 103.8 1.17559C102.362 1.92487 101.16 3.05746 100.326 4.448C99.4728 5.88425 99.0353 7.52901 99.062 9.19915C99.0353 10.8693 99.4727 12.5141 100.326 13.9503C101.16 15.341 102.362 16.4736 103.8 17.2227C105.341 18.0221 107.056 18.426 108.791 18.3979C110.293 18.4209 111.782 18.1281 113.163 17.5386C114.428 16.9907 115.539 16.1401 116.398 15.0618L113.214 12.1813C112.726 12.8248 112.095 13.3467 111.372 13.7062C110.648 14.0656 109.852 14.2529 109.044 14.2534C108.149 14.2697 107.264 14.0519 106.479 13.6216C105.737 13.2091 105.132 12.5901 104.735 11.8398C104.311 11.0254 104.098 10.1174 104.116 9.19915C104.098 8.28095 104.311 7.37291 104.735 6.55852C105.132 5.80845 105.738 5.18951 106.479 4.77672Z" fill="white"/>
<path d="M150.198 18.0441H156.01L148.404 8.18817L155.631 0.354004H150.122L143.274 7.70802V0.354004H138.321V18.0441H143.274V13.6216L145.144 11.6248L150.198 18.0441Z" fill="white"/>
<path d="M169.157 0.354248H164.229L156.42 18.044H161.525L162.915 14.6072H170.395L171.785 18.044H176.991L169.157 0.354248ZM164.381 10.9178L166.655 5.25694L168.93 10.9178H164.381Z" fill="white"/>
<path d="M130.448 6.74833H123.625V0.354004H118.622V18.0441H123.625V11.1446V10.8924H130.448V11.1446V18.0441H135.452V0.354004H130.448V6.74833Z" fill="white"/>
<path d="M15.8115 29.1033H14.3105V34.4105H18.3434V33.2198H15.8115V29.1033Z" fill="white"/>
<path d="M22.2177 29.1033L19.8752 34.4102H21.4063L21.8234 33.3791H24.0677L24.4843 34.4102H26.0464L23.696 29.1033H22.2177ZM22.2632 32.272L22.9453 30.5741L23.6279 32.272L22.2632 32.272Z" fill="white"/>
<path d="M36.6618 30.43C36.8972 30.3009 37.1623 30.2356 37.4308 30.2405C37.6732 30.2406 37.9122 30.2968 38.1293 30.4047C38.3463 30.5126 38.5355 30.6692 38.682 30.8623L39.6371 29.9976C39.3793 29.6743 39.0461 29.4192 38.6667 29.2548C38.2524 29.0779 37.8056 28.9902 37.3553 28.9971C36.8346 28.9887 36.32 29.1098 35.8577 29.3495C35.4263 29.5743 35.0655 29.9141 34.8153 30.3313C34.5669 30.7653 34.4362 31.2566 34.4362 31.7567C34.4362 32.2568 34.5669 32.7481 34.8153 33.1821C35.0655 33.5993 35.4263 33.9391 35.8577 34.1639C36.32 34.4036 36.8346 34.5247 37.3553 34.5163C37.8056 34.5232 38.2524 34.4355 38.6667 34.2586C39.0461 34.0942 39.3793 33.8391 39.6371 33.5158L38.682 32.651C38.5355 32.8442 38.3463 33.0008 38.1293 33.1087C37.9122 33.2166 37.6732 33.2728 37.4308 33.2729C37.1623 33.2778 36.8972 33.2124 36.6618 33.0834C36.4392 32.9598 36.2574 32.774 36.1386 32.5488C36.0162 32.3027 35.9525 32.0315 35.9525 31.7567C35.9525 31.4818 36.0162 31.2106 36.1386 30.9645C36.2574 30.7393 36.4392 30.5536 36.6618 30.43Z" fill="white"/>
<path d="M45.2243 31.9996C45.2243 32.8485 44.8908 33.273 44.2238 33.273C43.5516 33.273 43.2155 32.8485 43.2155 31.9996V29.1033H41.7145V32.045C41.6933 32.3781 41.7406 32.7121 41.8534 33.0262C41.9663 33.3404 42.1422 33.6281 42.3705 33.8717C42.8923 34.289 43.5406 34.5163 44.2088 34.5163C44.877 34.5163 45.5252 34.289 46.0471 33.8717C46.2754 33.6281 46.4513 33.3404 46.5641 33.0262C46.6769 32.7121 46.7242 32.3781 46.7031 32.045V29.1033H45.2243V31.9996Z" fill="white"/>
<path d="M50.7361 29.1033H49.2351V34.4102H50.7361V29.1033Z" fill="white"/>
<path d="M56.5548 31.4571C56.2268 31.3414 55.891 31.249 55.5499 31.1807C55.2834 31.1317 55.022 31.058 54.7691 30.9606C54.7003 30.9398 54.6399 30.8978 54.5963 30.8407C54.5528 30.7835 54.5285 30.7141 54.5267 30.6422C54.5272 30.5717 54.5465 30.5026 54.5825 30.442C54.6184 30.3814 54.6699 30.3314 54.7316 30.2972C54.9325 30.1941 55.1578 30.1481 55.3831 30.1645C55.8999 30.1758 56.4056 30.3167 56.8539 30.5741L57.3169 29.4596C57.0378 29.2999 56.7361 29.1836 56.4221 29.1146C56.084 29.0363 55.738 28.9969 55.391 28.9971C54.9491 28.9847 54.5093 29.0621 54.0983 29.2247C53.7801 29.3499 53.505 29.5645 53.3061 29.8426C53.1299 30.1004 53.0372 30.4061 53.0406 30.7183C53.0237 31.037 53.1265 31.3505 53.3288 31.5973C53.5151 31.811 53.7525 31.974 54.0188 32.0711C54.3455 32.1864 54.6798 32.2789 55.0193 32.348C55.2899 32.4008 55.5551 32.4783 55.8115 32.5795C55.8828 32.6028 55.945 32.6478 55.9892 32.7083C56.0335 32.7688 56.0577 32.8417 56.0583 32.9166C56.0583 33.2049 55.77 33.349 55.1935 33.349C54.8799 33.3472 54.5683 33.2986 54.2691 33.2049C53.9769 33.1184 53.6985 32.9908 53.4423 32.8258L52.9497 33.9324C53.2508 34.1307 53.5845 34.2743 53.9354 34.3569C54.3437 34.4638 54.7641 34.5174 55.1861 34.5163C55.627 34.5283 56.0656 34.4497 56.4749 34.2853C56.7934 34.1588 57.0694 33.9445 57.271 33.6673C57.4468 33.4137 57.5396 33.1117 57.5365 32.8031C57.554 32.4848 57.4497 32.1717 57.2448 31.9275C57.0565 31.717 56.8196 31.5555 56.5548 31.4571Z" fill="white"/>
<path d="M61.2438 29.1033H59.7423V34.4102H61.2438V29.1033Z" fill="white"/>
<path d="M67.4068 31.9311L65.0647 29.1033H63.829V34.4105H65.2995V31.5827L67.6428 34.4105H68.8778V29.1033H67.4068V31.9311Z" fill="white"/>
<path d="M72.9413 32.2801H75.2996V31.1581H72.9413V30.2634H75.6174V29.1033H71.4559V34.4105H75.7167V33.2504H72.9413V32.2801Z" fill="white"/>
<path d="M124.807 32.2801H127.166V31.1581H124.807V30.2634H127.484V29.1033H123.322V34.4105H127.583V33.2504H124.807V32.2801Z" fill="white"/>
<path d="M99.6097 34.4105H101.111V32.5911H103.454V31.431H101.111V30.2634H103.772V29.1033H99.6097V34.4105Z" fill="white"/>
<path d="M107.495 29.1033L105.152 34.4102H106.683L107.1 33.3791H109.345L109.761 34.4102H111.323L108.973 29.1033H107.495ZM107.54 32.272L108.222 30.5741L108.905 32.272H107.54Z" fill="white"/>
<path d="M114.765 29.1033H113.264V34.4102H114.765V29.1033Z" fill="white"/>
<path d="M116.85 30.294H118.48V34.4105H119.981V30.294H121.603V29.1033H116.85V30.294Z" fill="white"/>
<path d="M137.964 29.1033L136.145 32.1659L134.28 29.1033H133.044V34.4105H134.432V31.6732L135.789 33.8873H136.456L137.82 31.5977L137.836 34.4105H139.216L139.201 29.1033H137.964Z" fill="white"/>
<path d="M143.499 29.1033L141.157 34.4102H142.688L143.105 33.3791H145.349L145.766 34.4102H147.328L144.977 29.1033H143.499ZM143.544 32.272L144.227 30.5741L144.909 32.272H143.544Z" fill="white"/>
<path d="M150.769 29.1033H149.268V34.4102H150.769V29.1033Z" fill="white"/>
<path d="M156.588 31.4571C156.26 31.3414 155.925 31.2491 155.584 31.1807C155.317 31.1318 155.056 31.0581 154.803 30.9606C154.734 30.9398 154.674 30.8979 154.63 30.8407C154.586 30.7836 154.562 30.7141 154.56 30.6422C154.56 30.5717 154.58 30.5026 154.616 30.442C154.652 30.3814 154.703 30.3314 154.765 30.2972C154.966 30.194 155.191 30.1481 155.417 30.1645C155.934 30.1759 156.439 30.3167 156.888 30.5741L157.35 29.4596C157.071 29.2999 156.769 29.1835 156.455 29.1146C156.117 29.0363 155.771 28.9969 155.424 28.9972C154.982 28.9846 154.543 29.0621 154.132 29.2247C153.813 29.3499 153.538 29.5645 153.339 29.8427C153.163 30.1003 153.071 30.4061 153.074 30.7183C153.057 31.0369 153.16 31.3504 153.362 31.5973C153.548 31.811 153.786 31.9741 154.052 32.0711C154.379 32.1864 154.713 32.2789 155.053 32.348C155.323 32.4009 155.589 32.4784 155.845 32.5795C155.916 32.6029 155.978 32.648 156.023 32.7084C156.067 32.7689 156.091 32.8417 156.092 32.9166C156.092 33.2049 155.803 33.349 155.227 33.349C154.914 33.3473 154.602 33.2987 154.302 33.2049C154.01 33.1185 153.732 32.9909 153.476 32.8258L152.983 33.9324C153.284 34.1308 153.618 34.2744 153.969 34.3569C154.377 34.4639 154.797 34.5174 155.219 34.5163C155.66 34.5283 156.099 34.4496 156.509 34.2853C156.827 34.1587 157.103 33.9444 157.304 33.6673C157.48 33.4136 157.573 33.1117 157.57 32.8031C157.587 32.4847 157.483 32.1717 157.278 31.9275C157.09 31.7169 156.853 31.5554 156.588 31.4571Z" fill="white"/>
<path d="M163.965 29.3536C163.495 29.1192 162.977 28.9972 162.452 28.9972C161.927 28.9972 161.409 29.1192 160.939 29.3536C160.501 29.5834 160.134 29.9289 159.878 30.3525C159.621 30.7761 159.486 31.2617 159.486 31.7568C159.486 32.2518 159.621 32.7375 159.878 33.1611C160.134 33.5847 160.501 33.9301 160.939 34.16C161.409 34.3944 161.927 34.5164 162.452 34.5164C162.977 34.5164 163.495 34.3944 163.965 34.16C164.403 33.9301 164.77 33.5847 165.026 33.1611C165.283 32.7375 165.418 32.2518 165.418 31.7568C165.418 31.2617 165.283 30.7761 165.026 30.3525C164.77 29.9289 164.403 29.5834 163.965 29.3536ZM163.695 32.549C163.576 32.7714 163.398 32.9564 163.18 33.0835C162.957 33.2078 162.707 33.273 162.452 33.273C162.197 33.273 161.947 33.2078 161.724 33.0835C161.506 32.9566 161.328 32.7715 161.208 32.549C161.084 32.3035 161.019 32.0321 161.019 31.7568C161.019 31.4815 161.084 31.2101 161.208 30.9646C161.328 30.742 161.506 30.557 161.724 30.4301C161.947 30.3058 162.197 30.2405 162.452 30.2405C162.707 30.2405 162.957 30.3058 163.18 30.4301C163.398 30.5571 163.576 30.7422 163.695 30.9646C163.82 31.2101 163.885 31.4815 163.885 31.7568C163.885 32.0321 163.82 32.3035 163.695 32.549Z" fill="white"/>
<path d="M171.284 31.9311L168.942 29.1033H167.706V34.4105H169.177V31.5827L171.52 34.4105H172.755V29.1033H171.284V31.9311Z" fill="white"/>
</g>
<defs>
<clipPath id="clip0">
<rect width="176.991" height="50" fill="white"/>
</clipPath>
</defs>
</svg>
