<svg width="103" height="76" viewBox="0 0 103 76" fill="none" xmlns="http://www.w3.org/2000/svg">
<path d="M16.8466 24.8245C17.4624 24.4288 17.9642 23.8792 18.3025 23.23C18.6408 22.5809 18.8039 21.8547 18.7756 21.1233C18.8036 20.1162 18.4913 19.129 17.8893 18.3212C17.2605 17.521 16.4074 16.9265 15.439 16.6136C16.1823 16.249 16.8095 15.685 17.2506 14.9845C17.6805 14.2832 17.902 13.4741 17.8893 12.6517C17.9054 11.9644 17.7464 11.2844 17.4272 10.6755C17.108 10.0666 16.6391 9.54905 16.0646 9.17143C14.8481 8.31154 13.0756 7.88152 10.7471 7.88135H1.41523V26.1279H11.2684C13.7011 26.1279 15.5605 25.6934 16.8466 24.8245ZM6.5244 11.6091H10.0693C11.8069 11.6091 12.6758 12.1911 12.676 13.3553C12.676 14.5375 11.8071 15.1284 10.0693 15.128H6.5244V11.6091ZM6.5244 22.4002V18.6989H10.8513C12.6584 18.6989 13.5621 19.3158 13.5623 20.5495C13.5623 21.7836 12.6587 22.4005 10.8513 22.4002H6.5244Z" fill="white"/>
<path d="M27.3252 7.88135L19.2707 26.1279H24.5362L25.9698 22.5829H33.6854L35.119 26.1279H40.4887L32.4081 7.88135H27.3252ZM27.4816 18.7773L29.8276 12.9383L32.1736 18.7773H27.4816Z" fill="white"/>
<path d="M57.3796 24.8245C57.9954 24.4288 58.4972 23.8792 58.8355 23.2301C59.1739 22.5809 59.3369 21.8547 59.3086 21.1233C59.3366 20.1162 59.0243 19.129 58.4222 18.3212C57.7935 17.521 56.9405 16.9265 55.9722 16.6136C56.7154 16.249 57.3426 15.685 57.7837 14.9845C58.2136 14.2832 58.435 13.4741 58.4222 12.6517C58.4384 11.9644 58.2794 11.2844 57.9602 10.6755C57.641 10.0666 57.1721 9.54905 56.5976 9.17143C55.3811 8.31154 53.6086 7.88152 51.2802 7.88135H41.9484V26.1279H51.8015C54.2342 26.1279 56.0935 25.6934 57.3796 24.8245ZM47.0574 11.6091H50.6023C52.3399 11.6091 53.2088 12.1911 53.209 13.3553C53.209 14.5375 52.3401 15.1284 50.6023 15.128H47.0574V11.6091ZM47.0574 22.4002V18.6989H51.3843C53.1915 18.6989 54.0952 19.3158 54.0953 20.5495C54.0953 21.7836 53.1917 22.4005 51.3843 22.4002H47.0574Z" fill="white"/>
<path d="M76.3951 8.74166C74.7801 7.93575 72.9998 7.51624 71.1948 7.51624C69.3899 7.51624 67.6096 7.93575 65.9945 8.74166C64.4835 9.52245 63.2205 10.7096 62.3478 12.1695C61.475 13.6294 61.0273 15.3039 61.0549 17.0045C61.0273 18.7051 61.475 20.3797 62.3478 21.8395C63.2205 23.2994 64.4835 24.4866 65.9945 25.2674C67.6096 26.0733 69.3899 26.4928 71.1948 26.4928C72.9998 26.4928 74.7801 26.0733 76.3951 25.2674C77.9061 24.4865 79.1691 23.2994 80.0418 21.8395C80.9145 20.3796 81.3623 18.7051 81.3347 17.0045C81.3623 15.3039 80.9145 13.6294 80.0418 12.1695C79.1691 10.7097 77.9061 9.52248 76.3951 8.74166ZM75.4697 19.7283C75.0604 20.4932 74.4467 21.1294 73.6971 21.5661C72.9323 21.9934 72.0708 22.2178 71.1948 22.2178C70.3187 22.2178 69.4572 21.9934 68.6924 21.5661C67.9427 21.1296 67.329 20.4933 66.9198 19.7283C66.4738 18.8908 66.2495 17.9532 66.2682 17.0045C66.2495 16.0559 66.4738 15.1182 66.9198 14.2808C67.3293 13.5159 67.9429 12.8797 68.6924 12.4429C69.4572 12.0156 70.3187 11.7912 71.1948 11.7912C72.0708 11.7912 72.9323 12.0156 73.6971 12.4429C74.4465 12.8799 75.0601 13.5161 75.4697 14.2808C75.9155 15.1183 76.1398 16.0559 76.1214 17.0045C76.1399 17.9531 75.9156 18.8907 75.4697 19.7283Z" fill="white"/>
<path d="M95.9576 7.88135V17.8385C95.9576 20.7583 94.8107 22.2181 92.5169 22.2179C90.2056 22.2179 89.0499 20.7581 89.05 17.8385V7.88135H83.8889V17.9953C83.8889 20.7058 84.6405 22.7998 86.1438 24.2772C86.2294 24.3615 86.3241 24.4347 86.4137 24.5141C87.2463 25.3213 88.2875 25.8802 89.4203 26.1282C89.6437 26.157 89.8467 26.2727 89.9853 26.4502C90.124 26.6277 90.1871 26.8527 90.161 27.0764L88.3234 55.0152C88.1658 57.6679 89.7166 59.0893 92.4645 59.0893C95.2119 59.0893 96.7611 57.6693 96.6056 55.0159L94.7695 27.0751C94.7435 26.8514 94.8066 26.6265 94.9454 26.4491C95.0841 26.2717 95.2871 26.1562 95.5105 26.1276C96.639 25.88 97.6766 25.3238 98.5076 24.5212C98.6001 24.4395 98.6975 24.364 98.7857 24.2773C100.289 22.8003 101.04 20.7064 101.041 17.9953V7.88135H95.9576Z" fill="white"/>
<path d="M8.60333 39.9592C9.41357 39.5155 10.3256 39.2909 11.2492 39.3075C12.0823 39.3081 12.904 39.5014 13.6501 39.8721C14.3962 40.2429 15.0465 40.7811 15.5501 41.4448L18.8344 38.4736C17.9482 37.3617 16.8025 36.4844 15.4979 35.9189C14.0735 35.3109 12.5372 35.0089 10.9885 35.0325C9.19853 35.0036 7.42943 35.4202 5.84041 36.2447C4.35712 37.0176 3.11664 38.1858 2.25627 39.6201C1.40223 41.1122 0.95295 42.8016 0.95295 44.5208C0.95295 46.24 1.40223 47.9294 2.25627 49.4215C3.11649 50.8559 4.35701 52.0242 5.84041 52.7969C7.42943 53.6215 9.19853 54.038 10.9885 54.0091C12.5372 54.0328 14.0735 53.7308 15.4979 53.1227C16.8027 52.5576 17.9485 51.6803 18.8344 50.568L15.5501 47.5969C15.0466 48.2606 14.3963 48.7989 13.6502 49.1697C12.9041 49.5404 12.0823 49.7336 11.2492 49.7341C10.3255 49.751 9.41348 49.5264 8.60333 49.0824C7.83849 48.6569 7.2137 48.0184 6.8049 47.2446C6.38481 46.398 6.16622 45.4658 6.16622 44.5208C6.16622 43.5758 6.38481 42.6436 6.8049 41.7971C7.21399 41.0234 7.83871 40.385 8.60333 39.9592Z" fill="white"/>
<path d="M59.3025 35.3975H53.6203L46.5565 42.9828V35.3975H41.4474V53.644H46.5565V49.0821L48.4849 47.0231L53.6985 53.644H59.6939L51.8478 43.4781L59.3025 35.3975Z" fill="white"/>
<path d="M68.1711 35.3975L60.1165 53.644H65.3819L66.8156 50.0991H74.5312L75.9648 53.644H81.3346L73.2541 35.3975H68.1711ZM68.3274 46.2934L70.6734 40.4545L73.0194 46.2934H68.3274Z" fill="white"/>
<path d="M33.3274 53.644H38.4885V35.3975H33.3274V41.9926H26.2893V35.3975H21.1282V53.644H26.2893V46.5278V46.267H33.3274V46.5278V53.644Z" fill="white"/>
<path d="M2.48521 63.2223H1.41536V67.0038H4.28949V66.1554H2.48521V63.2223Z" fill="white"/>
<path d="M6.94232 63.222L5.2727 67.0039H6.36424L6.6609 66.2693H8.26021L8.55742 67.0039H9.67072L7.99581 63.222H6.94232ZM6.97456 65.4802L7.46056 64.2702L7.94713 65.4802H6.97456Z" fill="white"/>
<path d="M14.8812 64.1676C15.0492 64.0755 15.2384 64.0288 15.43 64.0322C15.6026 64.0323 15.7729 64.0723 15.9275 64.1492C16.0821 64.2261 16.2168 64.3378 16.3211 64.4754L17.0023 63.8593C16.8184 63.629 16.5809 63.4472 16.3105 63.3299C16.0153 63.2039 15.6969 63.1413 15.376 63.1464C15.0051 63.1404 14.6385 63.2267 14.3091 63.3973C14.0015 63.5578 13.7443 63.8 13.5657 64.0973C13.389 64.4066 13.296 64.7567 13.296 65.113C13.296 65.4692 13.389 65.8193 13.5657 66.1286C13.7442 66.4259 14.0015 66.668 14.3091 66.828C14.6383 66.9991 15.005 67.0856 15.376 67.0795C15.6969 67.0843 16.0152 67.0218 16.3105 66.896C16.5809 66.7787 16.8184 66.597 17.0023 66.3666L16.3211 65.7505C16.2168 65.8882 16.0821 65.9998 15.9275 66.0767C15.7729 66.1536 15.6026 66.1936 15.43 66.1937C15.2384 66.1971 15.0492 66.1504 14.8812 66.0583C14.7227 65.97 14.5932 65.8377 14.5084 65.6772C14.4216 65.5017 14.3765 65.3085 14.3765 65.1127C14.3765 64.9169 14.4216 64.7237 14.5084 64.5481C14.5934 64.388 14.7229 64.2558 14.8812 64.1676Z" fill="white"/>
<path d="M20.8762 65.2856C20.8762 65.8912 20.6384 66.1939 20.1627 66.1937C19.6838 66.1937 19.4442 65.891 19.444 65.2856V63.222H18.3741V65.3184C18.359 65.5559 18.3928 65.794 18.4732 66.0179C18.5537 66.2418 18.6792 66.4469 18.8419 66.6205C19.0187 66.7804 19.2257 66.9034 19.4507 66.9822C19.6757 67.0611 19.9142 67.0941 20.1522 67.0795C20.3901 67.094 20.6286 67.0609 20.8536 66.9821C21.0786 66.9033 21.2856 66.7803 21.4624 66.6205C21.625 66.4468 21.7503 66.2417 21.8306 66.0178C21.911 65.7938 21.9447 65.5559 21.9297 65.3184V63.222H20.8762V65.2856Z" fill="white"/>
<path d="M24.6956 63.222H23.6257V67.0039H24.6956V63.222Z" fill="white"/>
<path d="M28.7342 64.8993C28.5005 64.8171 28.2613 64.7513 28.0184 64.7023C27.8285 64.6676 27.6422 64.6152 27.4621 64.5458C27.413 64.531 27.3699 64.5011 27.3389 64.4603C27.3078 64.4196 27.2904 64.3701 27.2891 64.3189C27.2895 64.2686 27.3032 64.2194 27.3289 64.1761C27.3545 64.1328 27.3912 64.0972 27.4351 64.0727C27.5784 63.9995 27.7389 63.9668 27.8994 63.9783C28.2677 63.9863 28.6282 64.0867 28.9476 64.2703L29.2771 63.4759C29.0784 63.3621 28.8635 63.2793 28.6398 63.2303C28.3988 63.1743 28.1521 63.1461 27.9047 63.1464C27.5899 63.1375 27.2766 63.1926 26.9837 63.3083C26.7572 63.3978 26.5612 63.5506 26.4191 63.7485C26.2936 63.9324 26.2275 64.1503 26.2298 64.3729C26.2178 64.6 26.291 64.8235 26.435 64.9996C26.5681 65.1515 26.7372 65.2676 26.9268 65.3372C27.1598 65.4193 27.3982 65.4852 27.6403 65.5342C27.833 65.5721 28.022 65.6273 28.2048 65.6989C28.2555 65.7157 28.2997 65.7478 28.3311 65.791C28.3625 65.8341 28.3797 65.886 28.3801 65.9393C28.3801 66.1451 28.1749 66.2479 27.7646 66.2477C27.5409 66.2463 27.3186 66.2118 27.105 66.1451C26.897 66.0834 26.6988 65.9924 26.5164 65.8748L26.1653 66.6633C26.3797 66.8048 26.6175 66.9072 26.8676 66.9658C27.1584 67.0422 27.458 67.0804 27.7587 67.0796C28.0729 67.0881 28.3856 67.032 28.6773 66.9148C28.9044 66.8248 29.1012 66.6721 29.2448 66.4746C29.37 66.2937 29.4361 66.0784 29.4342 65.8584C29.4464 65.6317 29.372 65.4087 29.226 65.2347C29.0917 65.0847 28.9229 64.9696 28.7342 64.8993Z" fill="white"/>
<path d="M31.9679 63.222H30.898V67.0039H31.9679V63.222Z" fill="white"/>
<path d="M36.2524 65.2369L34.5823 63.2223H33.7021V67.0038H34.7503V64.9882L36.4199 67.0038H37.3006V63.2223H36.2524V65.2369Z" fill="white"/>
<path d="M40.088 65.4856H41.7687V64.6861H40.088V64.0485H41.9952V63.2223H39.0292V67.0038H42.0653V66.1771H40.088V65.4856Z" fill="white"/>
<path d="M63.9042 65.4856H65.5849V64.6861H63.9042V64.0485H65.8114V63.2223H62.8454V67.0038H65.8815V66.1771H63.9042V65.4856Z" fill="white"/>
<path d="M46.1772 67.0038H47.2466V65.707H48.9162V64.8808H47.2466V64.0485H49.1432V63.2223H46.1772V67.0038Z" fill="white"/>
<path d="M51.688 63.222L50.0184 67.0039H51.11L51.4072 66.2693H53.0064L53.3037 67.0039H54.4164L52.7415 63.222H51.688ZM51.7202 65.4802L52.2068 64.2702L52.6928 65.4802H51.7202Z" fill="white"/>
<path d="M56.7614 63.222H55.6914V67.0039H56.7614V63.222Z" fill="white"/>
<path d="M58.1393 64.0702H59.3004V67.0038H60.3703V64.0702H61.5264V63.2223H58.1393V64.0702Z" fill="white"/>
<path d="M72.8348 63.2223L71.5379 65.4049L70.2088 63.2223H69.3286V67.0038H70.3168V65.0533L71.2842 66.6311H71.7594L72.7324 64.9998L72.743 67.0038H73.7266L73.7155 63.2223H72.8348Z" fill="white"/>
<path d="M76.6706 63.222L75.0009 67.0039H76.0925L76.3897 66.2693H77.989L78.2862 67.0039H79.3989L77.724 63.222H76.6706ZM76.7028 65.4802L77.1894 64.2702L77.6754 65.4802H76.7028Z" fill="white"/>
<path d="M81.7439 63.222H80.674V67.0039H81.7439V63.222Z" fill="white"/>
<path d="M85.7826 64.8993C85.5488 64.8172 85.3096 64.7514 85.0668 64.7023C84.8767 64.6675 84.6902 64.6151 84.5098 64.5458C84.4609 64.5309 84.418 64.5009 84.387 64.4602C84.3561 64.4195 84.3388 64.3701 84.3375 64.3189C84.3377 64.2687 84.3513 64.2194 84.3769 64.1762C84.4024 64.1329 84.439 64.0972 84.4829 64.0727C84.6263 63.9994 84.7871 63.9668 84.9477 63.9783C85.3161 63.9865 85.6765 64.0868 85.996 64.2703L86.3254 63.4759C86.1267 63.3621 85.9118 63.2793 85.6882 63.2303C85.4472 63.1743 85.2005 63.1461 84.953 63.1464C84.6382 63.1375 84.3249 63.1926 84.032 63.3083C83.8055 63.3978 83.6095 63.5506 83.4675 63.7485C83.3417 63.9322 83.2756 64.1502 83.2781 64.3729C83.2662 64.6 83.3393 64.8235 83.4833 64.9996C83.6163 65.1516 83.7855 65.2678 83.9752 65.3372C84.208 65.4193 84.4462 65.4851 84.688 65.5342C84.881 65.5721 85.0701 65.6272 85.2532 65.699C85.3038 65.7157 85.348 65.7479 85.3794 65.791C85.4109 65.8341 85.428 65.886 85.4285 65.9393C85.4285 66.1451 85.2231 66.2479 84.8123 66.2477C84.37 66.2413 83.9381 66.1122 83.5648 65.8748L83.2131 66.6633C83.4276 66.8046 83.6653 66.907 83.9154 66.9658C84.2064 67.0422 84.5061 67.0804 84.807 67.0796C85.1213 67.0881 85.434 67.032 85.7257 66.9148C85.9526 66.8246 86.1494 66.672 86.2932 66.4746C86.4182 66.2936 86.4841 66.0784 86.4819 65.8584C86.4943 65.6317 86.4202 65.4088 86.2744 65.2347C86.14 65.0847 85.9712 64.9696 85.7826 64.8993Z" fill="white"/>
<path d="M90.9316 63.4003C90.5967 63.2334 90.2276 63.1465 89.8535 63.1465C89.4793 63.1465 89.1102 63.2334 88.7754 63.4003C88.4629 63.5642 88.2011 63.8103 88.0185 64.1122C87.8359 64.4141 87.7394 64.7602 87.7394 65.113C87.7394 65.4659 87.8359 65.812 88.0185 66.1139C88.2011 66.4158 88.4629 66.6619 88.7754 66.8257C89.1102 66.9927 89.4793 67.0796 89.8535 67.0796C90.2276 67.0796 90.5967 66.9927 90.9316 66.8257C91.2439 66.6618 91.5054 66.4156 91.6879 66.1137C91.8704 65.8118 91.9668 65.4658 91.9668 65.113C91.9668 64.7603 91.8704 64.4143 91.6879 64.1124C91.5054 63.8105 91.2439 63.5643 90.9316 63.4003ZM90.7393 65.6773C90.6548 65.836 90.5277 65.968 90.3723 66.0584C90.2138 66.1471 90.0351 66.1938 89.8534 66.1938C89.6718 66.1938 89.4931 66.1471 89.3346 66.0584C89.1792 65.968 89.0521 65.836 88.9676 65.6773C88.8786 65.5024 88.8322 65.309 88.8322 65.1128C88.8322 64.9165 88.8786 64.7231 88.9676 64.5482C89.0523 64.3898 89.1793 64.258 89.3346 64.1677C89.4931 64.0789 89.6718 64.0323 89.8534 64.0323C90.0351 64.0323 90.2138 64.0789 90.3723 64.1677C90.5275 64.258 90.6546 64.3898 90.7393 64.5482C90.8283 64.7231 90.8747 64.9165 90.8747 65.1128C90.8747 65.309 90.8283 65.5024 90.7393 65.6773Z" fill="white"/>
<path d="M96.0396 65.2369L94.37 63.2223H93.4893V67.0038H94.5375V64.9882L96.2071 67.0038H97.0878V63.2223H96.0396V65.2369Z" fill="white"/>
</svg>
